<?xml version="1.0" encoding="utf-8"?>
<!-- Generator: Adobe Illustrator 24.3.0, SVG Export Plug-In . SVG Version: 6.00 Build 0)  -->
<svg version="1.1" id="Layer_1" xmlns="http://www.w3.org/2000/svg" xmlns:xlink="http://www.w3.org/1999/xlink" x="0px" y="0px"
	 viewBox="0 0 638.4 699.2" style="enable-background:new 0 0 638.4 699.2;" xml:space="preserve">
<style type="text/css">
	.st0{fill:#CCACAC;}
	.st1{fill:#0F6E3F;}
	.st2{fill:#15003E;}
	.st3{fill:#FCFAFA;}
	.st4{fill:#FFFFFF;}
	.st5{fill:#25E899;}
	.st6{fill:#F2447E;}
	.st7{fill:#EFF4EE;}
	.st8{fill:#C8CACC;}
	.st9{fill:#7FC6F3;}
	.st10{fill:#7FC5F3;}
	.st11{fill:#0171BC;}
	.st12{fill:#32A2ED;}
	.st13{fill:#B5598D;}
	.st14{fill:#606060;stroke:#3A3637;stroke-width:2;stroke-miterlimit:10;}
</style>
<g>
	<polygon class="st0" points="564.9,491.5 564.9,207.7 319.2,65.8 73.5,207.7 73.5,491.5 319.2,633.4 	"/>
	<path class="st1" d="M321,346.9c0.9,0,1.7-0.1,2.6-0.1c0,0,0,0,0,0l2.6-0.2L321,346.9z"/>
	<rect x="346.8" y="548.7" class="st2" width="7.2" height="3.3"/>
	<rect x="335.9" y="548.7" class="st2" width="7.2" height="3.3"/>
	<rect x="293.6" y="548.8" class="st2" width="7.2" height="3.3"/>
	<rect x="304.5" y="548.8" class="st2" width="7.2" height="3.3"/>
	<g id="Layer_8">
		<path class="st3" d="M342.1,393.1l5.6-27.8c0-13.6-9.8-23-9.8-23c-7.5-6.5-17.9-4.6-17.9-4.6c-17,4.9-17.5,27-17.5,27l5.9,27
			L342.1,393.1z"/>
	</g>
	<path class="st4" d="M298.7,446.7v-20.8h50.8v20.8l0,0c0,8.1-5.3,14.7-11.7,14.7h-27.3C304,461.3,298.7,454.8,298.7,446.7z"/>
	<path class="st2" d="M297.7,446.7v-20.8c0-0.6,0.4-1.2,1-1.3h50.8c0.5,0,1,0.6,1,1.3v20.8c0,8.8-5.7,15.9-12.7,15.9h-27.3
		C303.4,462.5,297.7,455.4,297.7,446.7z M299.7,427.2v19.5c0,7.4,4.8,13.4,10.8,13.4h27.3c5.9,0,10.8-6,10.8-13.4v-19.5H299.7z"/>
	<rect x="298.7" y="440.6" class="st2" width="50.8" height="2.5"/>
	<path class="st2" d="M349.5,441.7h-49.6l-1.2,4.8l2.6,9.1l5.6,4.8l16.6,1.5l16.1-1.9l4.4-0.5l5.1-8.5L349.5,441.7L349.5,441.7z"/>
	<path class="st6" d="M319.1,442.6L319.1,442.6L319.1,442.6c0,3.7,2.4,6.6,5.3,6.6s5.3-2.9,5.3-6.6s-2.4-6.6-5.3-6.6
		S319.1,438.9,319.1,442.6"/>
	<path class="st2" d="M318.2,442.6L318.2,442.6c0-4.3,2.8-7.7,6.2-7.7c3.4,0,6.2,3.4,6.2,7.7c0,4.3-2.8,7.7-6.2,7.7
		S318.2,446.9,318.2,442.6z M324.4,437.2c-2.4,0-4.3,2.4-4.3,5.3l0,0c0,2.9,1.9,5.3,4.3,5.3s4.3-2.4,4.3-5.3
		S326.8,437.2,324.4,437.2z"/>
	<path class="st6" d="M344.1,458.2L344.1,458.2c-0.1,1.7,1.1,3.1,2.6,3.2l0,0c1.6,0.2,3-1.1,3.1-2.9c0.1-1.8-1-3.3-2.6-3.6
		c-1.6-0.2-3,1.1-3.1,2.9C344.1,458,344.1,458.1,344.1,458.2"/>
	<path class="st6" d="M299.1,458.2L299.1,458.2c-0.1,1.7,1.1,3.1,2.6,3.2l0,0c1.6,0.2,3-1.2,3.1-2.9c0.1-1.7-1-3.3-2.6-3.6
		s-3,1.2-3.1,2.9C299,458.1,299,458.2,299.1,458.2"/>
	<path class="st4" d="M343.5,498.6v-26l0,0v-0.4c0.1-2.9,2-5.2,4.3-5.1c2.3,0.1,4.1,2.6,4,5.5v31.3h-4.2
		C345.3,503.8,343.5,501.4,343.5,498.6z"/>
	<path class="st2" d="M342.5,498.6v-26c0-0.1,0-0.3,0-0.4c0.1-3.6,2.5-6.3,5.4-6.2c2.9,0.1,5.1,3.1,4.9,6.7v31.3
		c0,0.6-0.4,1.2-1,1.2h-4.2C344.8,505.1,342.5,502.2,342.5,498.6z M350.9,472.6c0-1.9-1.3-3.7-3-3.9c-1.8,0-3.3,1.7-3.3,3.8l0,0v26
		c-0.1,2.2,1.3,3.9,3.2,4h3.2L350.9,472.6z"/>
	<path class="st2" d="M337.4,507.1v-34.9c0-0.6,0.3-1.2,0.9-1.2s1.1,0.4,1.1,1.1c0,0.1,0,0.1,0,0.2v35c0,0.6-0.3,1.2-0.9,1.2
		s-1.1-0.4-1.1-1.1C337.4,507.3,337.4,507.3,337.4,507.1L337.4,507.1z"/>
	<path class="st4" d="M341,524c-1.6-0.2-2.8-1.8-2.7-3.7c0-1.8,1.3-3.3,2.9-3.3l0,0h7.7c1.7,0.3,2.9,2,2.7,4c-0.2,1.5-1.3,2.8-2.7,3
		H341L341,524z"/>
	<path class="st2" d="M341,525.3c-2-0.1-3.8-2.4-3.7-4.9c0.1-2.6,1.8-4.6,4-4.5h7.7c2,0.2,3.7,2.2,3.7,4.5c0.1,2.6-1.5,4.8-3.7,4.9
		H341z M341.3,518.3c-1.1,0.1-1.9,1.2-1.8,2.5c0.1,1.1,0.9,1.9,1.8,2h7.7c1.1-0.1,1.9-1.2,1.8-2.5c-0.1-1.1-0.9-1.9-1.8-2H341.3z"/>
	<path class="st4" d="M334.7,548.7c-2-0.2-3.7-2.2-3.6-4.5c-0.1-2.6,1.5-4.7,3.6-4.8h19.4c2,0.2,3.7,2.2,3.6,4.5
		c0.1,2.6-1.5,4.7-3.6,4.8H334.7L334.7,548.7z"/>
	<path class="st2" d="M334.7,549.9L334.7,549.9c-2.6,0-4.7-2.7-4.7-5.9s2.2-5.9,4.7-5.9h19.4c2.6,0,4.7,2.7,4.7,5.9
		s-2.2,5.9-4.7,5.9H334.7z M334.7,540.5c-1.6,0.1-2.8,1.6-2.8,3.4c0,0.9,0.3,1.7,0.8,2.5c0.5,0.6,1.2,1,1.9,1H354
		c1.5-0.2,2.7-1.6,2.6-3.3c0.1-1.8-1.1-3.4-2.6-3.7h-19.3V540.5z"/>
	<rect x="341.6" y="524" class="st4" width="7.4" height="15.3"/>
	<path class="st2" d="M341.6,540.5c-0.5,0-1-0.5-1-1.2l0,0V524l0,0c0-0.6,0.4-1.2,1-1.2h7.4c0.5,0,1,0.5,1,1.2v15.3l0,0
		c0,0.6-0.4,1.2-1,1.2H341.6L341.6,540.5z M348.1,525.3h-5.5V538h5.5V525.3z"/>
	<path class="st2" d="M337.4,512.1c0-0.6,0.4-1.2,1-1.2h13.3c0.6,0.1,1.1,0.8,1,1.4c-0.1,0.5-0.4,1-1,1.1h-13.3
		C337.9,513.3,337.4,512.7,337.4,512.1z"/>
	<path class="st2" d="M346.8,553.2c-0.5,0-1-0.5-1-1.2v-3.3l0,0c0-0.6,0.4-1.2,1-1.2h7.2c0.5,0,1,0.5,1,1.2v3.2l0,0
		c0,0.6-0.4,1.2-1,1.2l0,0L346.8,553.2L346.8,553.2z M353,549.9h-5.2v0.9h5.2V549.9z"/>
	<path class="st2" d="M335.8,553.2c-0.5,0-1-0.5-1-1.2l0,0v-3.3l0,0c0-0.6,0.4-1.2,1-1.2h7.2c0.5,0,1,0.5,1,1.2v3.3
		c0,0.6-0.4,1.2-1,1.2H335.8z M342.1,549.9h-5.2v0.9h5.2V549.9z"/>
	<rect x="343.5" y="491" class="st2" width="8.4" height="2.5"/>
	<rect x="343.5" y="477.3" class="st2" width="8.4" height="2.5"/>
	<ellipse class="st4" cx="346.1" cy="507.9" rx="3.1" ry="3.9"/>
	<path class="st2" d="M342,507.9L342,507.9c0-2.9,1.8-5.2,4.2-5.2c2.3,0,4.1,2.4,4.1,5.2s-1.8,5.2-4.2,5.2S342,510.8,342,507.9z
		 M344,507.9L344,507.9c0.1,1.3,1.2,2.3,2.4,2.2c1.2-0.1,2-1.4,1.9-2.7s-1.1-2.2-2.2-2.2C344.9,505.3,343.9,506.5,344,507.9
		L344,507.9L344,507.9z"/>
	<path class="st2" d="M345.3,518.3c-0.5,0-1-0.5-1-1.2v-4.9l0,0c0-0.6,0.3-1.2,0.9-1.2s1.1,0.4,1.1,1.1c0,0.1,0,0.1,0,0.2v4.9l0,0
		C346.4,517.7,345.9,518.2,345.3,518.3L345.3,518.3z"/>
	<path class="st2" d="M339.6,469.2c-0.4-0.5-0.4-1.3,0-1.7l3.8-4.7c0.2-0.2,0.4-0.3,0.8-0.3h5.2c0.6,0.1,1.1,0.6,1,1.4
		c-0.1,0.5-0.4,1.1-1,1.1h-4.7l-3.4,4.3c-0.2,0.2-0.4,0.3-0.8,0.3C340,469.5,339.8,469.4,339.6,469.2z"/>
	<path class="st4" d="M304.1,498.8v-26c0-0.4,0-0.8,0-1.2c-0.2-2.9-2.4-4.9-4.6-4.6c-2.4,0.3-4,2.9-3.8,5.8V504h4.2
		C302.3,503.9,304.1,501.7,304.1,498.8z"/>
	<path class="st2" d="M294.7,503.9v-31.7c0.1-3.6,2.5-6.3,5.4-6.2c2.9,0.1,5.1,3.1,5.1,6.7v26c0,3.6-2.4,6.5-5.2,6.5h-4.3
		C295.2,505.2,294.7,504.6,294.7,503.9z M299.9,468.6L299.9,468.6c-1.8,0.1-3.3,1.9-3.2,4v30h3.2c1.8-0.1,3.3-1.9,3.2-4v-26
		C303.2,470.6,301.8,468.7,299.9,468.6z"/>
	<path class="st2" d="M309,508.5c-0.5,0-1-0.5-1-1.2v-34.9l0,0c0-0.6,0.3-1.2,0.9-1.2s1.1,0.4,1.1,1.1c0,0.1,0,0.1,0,0.2v35
		C310.1,507.9,309.7,508.4,309,508.5L309,508.5z"/>
	<path class="st4" d="M308.9,520.8c0.1-1.8-1.1-3.4-2.7-3.7h-7.7c-1.5,0.2-2.7,1.6-2.7,3.3c-0.1,1.8,1.1,3.4,2.7,3.7h7.7
		C307.9,524,308.9,522.5,308.9,520.8z"/>
	<path class="st2" d="M298.5,525.4c-2-0.2-3.7-2.2-3.7-4.5c-0.1-2.6,1.5-4.8,3.7-4.9h7.7c2,0.2,3.7,2.2,3.7,4.5
		c0.1,2.6-1.5,4.8-3.7,4.9H298.5z M298.5,518.4c-1.1,0.1-1.9,1.2-1.8,2.5c0.1,1.1,0.9,1.9,1.8,2h7.7c1.1-0.1,1.9-1.2,1.8-2.5
		c-0.1-1.1-0.9-1.9-1.8-2H298.5z"/>
	<path class="st4" d="M316.5,544.3c0.1-2.6-1.5-4.7-3.6-4.8h-19.4c-2,0.2-3.7,2.2-3.6,4.5c-0.1,2.6,1.5,4.7,3.6,4.8h19.4
		C314.8,548.6,316.5,546.6,316.5,544.3z"/>
	<path class="st2" d="M293.1,550.1c-2.6-0.1-4.6-2.9-4.5-6.1c0.1-3.2,2.3-5.8,4.9-5.7h19.4c2.5,0.1,4.5,2.6,4.5,5.7
		c0.1,3.2-1.9,6-4.5,6.1H293.1z M293.4,540.6c-1.5,0.2-2.6,1.6-2.6,3.3c-0.1,1.8,1.1,3.4,2.6,3.7h19.4c1.7-0.3,2.9-2,2.6-4
		c-0.2-1.5-1.3-2.7-2.6-2.9h-19.4V540.6z"/>
	<rect x="298.5" y="524.1" class="st4" width="7.4" height="15.3"/>
	<path class="st2" d="M297.5,539.4v-15.3l0,0c0-0.6,0.4-1.2,1-1.2l0,0h7.4c0.5,0,1,0.5,1,1.2v15.3c0,0.6-0.4,1.2-1,1.2h-7.4
		C298,540.6,297.5,540.1,297.5,539.4z M304.9,525.4h-5.5v12.8h5.5V525.4z"/>
	<path class="st2" d="M294.7,512.2c0-0.6,0.4-1.2,1-1.2H309c0.6,0.1,1.1,0.6,1,1.4c-0.1,0.5-0.4,1.1-1,1.1h-13.3
		C295.2,513.5,294.7,512.8,294.7,512.2z"/>
	<path class="st2" d="M292.6,552.1v-3.3l0,0c0-0.6,0.4-1.2,1-1.2h7.2c0.5,0,1,0.5,1,1.2v3.3c0,0.6-0.4,1.2-1,1.2h-7.2
		C293,553.3,292.6,552.8,292.6,552.1z M299.8,550.1h-5.2v0.9h5.2V550.1z"/>
	<path class="st2" d="M303.5,552.1v-3.3l0,0c0-0.6,0.4-1.2,1-1.3l0,0h7.2c0.5,0,1,0.6,1,1.2v3.3l0,0c0,0.6-0.4,1.2-1,1.2h-7.2
		C304,553.3,303.5,552.8,303.5,552.1z M310.8,550.1h-5.2v0.9h5.2V550.1z"/>
	<rect x="295.7" y="491.1" class="st2" width="8.4" height="2.5"/>
	<rect x="295.7" y="477.6" class="st2" width="8.4" height="2.5"/>
	<ellipse class="st4" cx="301.5" cy="508" rx="3.1" ry="3.9"/>
	<path class="st2" d="M301.5,513.2c-2.3,0-4.1-2.3-4.1-5.2s1.8-5.2,4.1-5.2s4.1,2.3,4.1,5.2S303.8,513.2,301.5,513.2z M301.5,505.3
		L301.5,505.3c-1.3-0.1-2.5,1-2.7,2.5c-0.2,1.5,0.9,2.8,2.2,3c1.3,0.1,2.5-1,2.7-2.5c0-0.1,0-0.2,0-0.3
		C303.7,506.6,302.7,505.4,301.5,505.3L301.5,505.3z"/>
	<path class="st2" d="M302.3,518.4c-0.5,0-1-0.5-1-1.3v-4.9c0-0.5,0.4-1.1,1-1.2c0.5,0,1.1,0.5,1.1,1.2l0,0v4.9
		C303.2,517.8,302.8,518.3,302.3,518.4z"/>
	<path class="st2" d="M306.6,469.3l-3.4-4.3h-4.7c-0.5-0.1-0.9-0.5-1-1.2c-0.1-0.6,0.3-1.3,1-1.3h5.2c0.2,0,0.5,0.1,0.8,0.3l3.8,4.7
		c0.2,0.2,0.3,0.5,0.3,0.9c0,0.6-0.4,1.2-1,1.2C307,469.6,306.8,469.5,306.6,469.3z"/>
	<rect x="348.9" y="441" class="st2" width="15.9" height="10.2"/>
	<g>
		<path class="st5" d="M364.1,441l-0.2,13.3"/>
		<path class="st2" d="M363.3,454.3l0.2-13.3v-0.1c0-0.4,0.3-0.8,0.6-0.8l0,0c0.3,0.1,0.6,0.4,0.5,0.9l-0.2,13.3l0,0
			c0,0.4-0.2,0.8-0.5,0.8c-0.3,0-0.6-0.2-0.8-0.7C363.3,454.4,363.3,454.4,363.3,454.3L363.3,454.3z"/>
		<path class="st2" d="M363.6,476.2l-0.2,11.9"/>
		<path class="st2" d="M362.7,488.2l0.2-11.9c0-0.4,0.3-0.7,0.6-0.8c0.3,0,0.6,0.3,0.6,0.8l0,0l-0.2,11.9l0,0c0,0.4-0.2,0.8-0.5,0.8
			s-0.6-0.2-0.8-0.7V488.2z"/>
		<g>
			<path class="st4" d="M358.1,479.8l0.5-34.4l0,0c0-2.6,1.6-4.6,3.7-4.5l3.7,0.1c1.9,0,3.6,2.1,3.4,4.7l-0.5,34.4l0,0
				c0,2.6-1.6,4.6-3.7,4.5l-3.7-0.1C359.6,484.5,358.1,482.4,358.1,479.8z"/>
			<path class="st2" d="M357.4,479.8l0.5-34.4c0-3,1.9-5.4,4.3-5.4l3.7,0.1c2.3,0,4.1,2.6,4.1,5.6l-0.5,34.4c0,3-1.9,5.4-4.3,5.4
				l-3.7-0.1C359.3,485.3,357.4,482.8,357.4,479.8z M362.3,441.8c-1.6,0-2.9,1.6-2.9,3.7l-0.5,34.4c0,2.1,1.2,3.8,2.8,3.8l3.7,0.1
				c1.6,0,2.9-1.6,2.9-3.7l0.5-34.4c0-2.1-1.2-3.8-2.8-3.8L362.3,441.8z"/>
			<path class="st6" d="M360.8,476.2L360.8,476.2L360.8,476.2c0,2,1.2,3.7,2.8,3.7l0,0c1.6,0,2.9-1.6,2.9-3.7c0-2.1-1.2-3.7-2.8-3.8
				C362.1,472.5,360.8,474,360.8,476.2"/>
			<path class="st2" d="M360,476.2L360,476.2c0-2.5,1.6-4.5,3.6-4.5c1.9,0,3.4,2.1,3.4,4.6c0,2.5-1.6,4.5-3.6,4.5
				S360,478.6,360,476.2z M361.3,476.2L361.3,476.2c0.1,1.5,1.2,2.5,2.4,2.4c1.2-0.1,2.2-1.3,2-2.8c-0.1-1.3-1.1-2.4-2.2-2.4
				C362.3,473.4,361.3,474.7,361.3,476.2L361.3,476.2z"/>
			<path class="st2" d="M358.5,455.1c-0.4-0.1-0.6-0.4-0.6-0.9c0-0.4,0.3-0.7,0.6-0.8l10.8,0.2c0.4,0.1,0.6,0.4,0.6,0.9
				c0,0.4-0.3,0.7-0.6,0.8L358.5,455.1z"/>
			<path class="st2" d="M358.4,463.5c-0.4-0.1-0.6-0.4-0.6-1c0-0.3,0.3-0.7,0.6-0.7l10.8,0.2c0.4,0,0.6,0.4,0.6,0.9
				s-0.3,0.8-0.6,0.8L358.4,463.5z"/>
			<path class="st7" d="M360.7,499.7l0.1-9.2c0-1.2,0.8-2.2,1.8-2.2h1.5c1.1,0.1,1.8,1.1,1.7,2.4l-0.1,9.2"/>
			<path class="st2" d="M360.7,500.5c-0.3,0-0.6-0.4-0.6-0.9l0.1-9.2c0-1.8,1.2-3.1,2.5-3.1h1.5c1.3,0,2.4,1.5,2.4,3.3l-0.1,9.2l0,0
				c0,0.4-0.2,0.8-0.6,0.8c-0.3,0-0.6-0.3-0.6-0.7v-0.1l0.1-9.2l0,0c0-0.8-0.4-1.5-1.1-1.6h-1.5c-0.6,0-1.2,0.7-1.2,1.5l-0.1,9.2
				l0,0C361.3,500.1,361,500.5,360.7,500.5L360.7,500.5z"/>
			<path class="st6" d="M360.7,499.7c0,1.8,1.1,3.4,2.5,3.4l0,0c1.4,0,2.6-1.5,2.6-3.3s-1.1-3.4-2.5-3.4
				C361.9,496.4,360.7,497.9,360.7,499.7"/>
			<path class="st2" d="M360,499.7c0-2.4,1.5-4.2,3.2-4.2s3.1,1.9,3.1,4.3s-1.5,4.2-3.2,4.2C361.4,503.9,360,501.9,360,499.7z
				 M363.3,497.3c-1.1,0-1.9,1.1-1.9,2.5l0,0c0.1,1.2,1,2.1,2,2c1.1-0.1,1.8-1.2,1.7-2.5C365.1,498.2,364.2,497.3,363.3,497.3z"/>
		</g>
	</g>
	<rect x="282.6" y="441" class="st2" width="15.9" height="10.2"/>
	<rect x="306.9" y="415.8" class="st4" width="36.1" height="10.1"/>
	<path class="st2" d="M305.9,414.5H344v12.6h-38.1V414.5z M342,417h-34.1v7.6H342V417z"/>
	<path class="st6" d="M309.6,410.6c0-0.6,0.4-1.2,1-1.3h28.2c0.6,0,1.1,0.6,1,1.3c0,0.6-0.4,1.1-1,1.2h-28.2
		C310,411.9,309.6,411.3,309.6,410.6z"/>
	<path class="st4" d="M342,393.1h-34l-2.3-10.1l3-1.5h35.4L342,393.1z"/>
	<path class="st7" d="M308,399.7v-6.5h34v6.5c0,3.3-2.2,6-4.8,6h-24.3C310.1,405.6,308.1,402.9,308,399.7z"/>
	<path class="st2" d="M312.8,406.9c-3.2,0-5.8-3.2-5.8-7.3v-7.7h35.9v7.7c0,4-2.6,7.2-5.8,7.2h-24.3V406.9z M309,394.4v5.3
		c0,2.6,1.7,4.7,3.8,4.7h24.3c2.2,0,3.8-2.2,3.8-4.7v-5.3H309z"/>
	<path class="st6" d="M319,381.6c-1.4-0.9-2.8-1.8-4-3.1c-6.2-6.9-6.9-18.9-1.3-26.7c2.8-3.9,20.2-3.7,23,0.5
		c0.9,1.3,1.6,2.8,2.2,4.4c3.3,9.6-0.1,20.8-7.7,25"/>
	<path class="st2" d="M332.2,382.9c-0.4,0-0.8-0.3-0.9-0.8c-0.2-0.6,0-1.3,0.4-1.6c7.4-4.5,10.4-15.6,6.9-24.9
		c-0.2-0.6-0.5-1.3-0.9-1.8s-0.2-1.3,0.3-1.7c0.4-0.3,1-0.2,1.3,0.2c0,0,0,0.1,0.1,0.1c0.3,0.6,0.6,1.4,1,2.2
		c4.1,10.4,0.5,23-7.7,28.1C332.4,382.8,332.3,382.8,332.2,382.9L332.2,382.9z"/>
	<path class="st2" d="M317.7,382.7c-0.9-0.5-1.6-1.2-2.4-1.8c-7.5-6.9-9-20-3.7-29.4c0.2-0.5,0.9-0.6,1.3-0.3c0,0,0.1,0,0.1,0.1
		c0.4,0.4,0.5,1.2,0.2,1.7c-4.8,8.3-3.4,19.9,3.2,25.9c0.6,0.6,1.4,1.2,2.2,1.6c0.3,0.2,0.5,0.6,0.5,1.1c0,0.6-0.4,1.2-1,1.2
		C318,382.8,317.9,382.7,317.7,382.7z"/>
	<path class="st2" d="M301.4,366.1v-0.4c0-16.2,10.5-29.4,23.6-29.4s23.5,13.1,23.5,29.4v0.1l-5.8,28.4h-35.5L301.4,366.1z
		 M346.5,365.6c-0.2-14.5-9.6-26.2-21.2-26.5c-11.9-0.2-21.7,11.6-21.9,26.5l5.4,26.2h32.4L346.5,365.6z"/>
	<path class="st2" d="M345.7,378.6L345.7,378.6c-0.6-0.1-1.1-0.6-1-1.4c0.1-0.5,0.4-1.1,1-1.1h2.4c1.4-0.1,2.5-1.4,2.4-3v-10.9
		c0-1.6-1-2.9-2.4-3h-1c-0.6-0.1-1-0.8-0.9-1.5c0.1-0.5,0.4-1,0.9-1.1h1c2.5,0,4.4,2.5,4.4,5.5V373c0,3-1.9,5.5-4.4,5.5L345.7,378.6
		L345.7,378.6z"/>
	<path class="st2" d="M297.4,373.1v-10.9c0-3,1.9-5.5,4.4-5.5h1c0.5,0.1,0.9,0.5,1,1.2c0.1,0.6-0.3,1.3-1,1.3h-1
		c-1.4,0.1-2.5,1.4-2.4,3v10.9c-0.1,1.6,1,2.9,2.4,3h2.4c0.5,0.1,0.9,0.5,1,1.2c0.1,0.6-0.3,1.3-1,1.3h-2.4
		C299.4,378.7,297.4,376.2,297.4,373.1z"/>
	<path class="st2" d="M346.5,361.9c-11.6-15.1-30.8-15.6-42.9-1.2l-0.1,0.1c-0.3,0.4-1,0.4-1.3,0l-0.1-0.1c-0.3-0.5-0.3-1.3,0.1-1.7
		c12.9-15.4,33.4-14.8,45.7,1.2l0,0c0.4,0.5,0.4,1.3,0,1.7c-0.2,0.2-0.4,0.3-0.6,0.3C347,362.3,346.7,362.1,346.5,361.9z"/>
	<path class="st2" d="M304.8,381.7c-0.1-0.6,0.3-1.3,1-1.3h38.3c0.5,0.1,0.9,0.5,1,1.2c0.1,0.6-0.3,1.3-1,1.3h-38.4
		C305.3,382.8,304.8,382.2,304.8,381.7z"/>
	<path class="st4" d="M317.1,358L317.1,358c0-2.7,1.7-4.9,4-4.9l0,0c2.2,0,4,2.2,4,4.9s-1.7,4.9-4,4.9
		C318.8,363,317.1,360.7,317.1,358"/>
	<path class="st4" d="M314.3,365.4c0-1.1,0.6-1.9,1.6-2l0,0c1-0.1,1.8,0.6,1.9,1.8c0.1,1.1-0.6,2-1.6,2.2c-1,0.1-1.8-0.6-1.9-1.8
		C314.3,365.5,314.3,365.5,314.3,365.4"/>
	<path class="st6" d="M311.1,390.4L311.1,390.4c-0.6-0.1-1.1-0.8-1-1.4c0.1-0.5,0.4-1,1-1.1c0.4,0,0.6-0.3,1.1-1.3
		c0.4-0.9,1.3-2.4,2.8-2.4s2.3,1.5,2.8,2.4c0.4,1,0.8,1.3,1.1,1.3s0.6-0.3,1.1-1.3c0.4-0.9,1.3-2.4,2.8-2.4c1.5,0,2.3,1.5,2.8,2.4
		c0.5,1,0.8,1.3,1.1,1.3c0.4,0,0.6-0.3,1.1-1.3c0.4-0.9,1.3-2.4,2.8-2.4c1.5,0,2.3,1.4,2.8,2.4s0.8,1.3,1.1,1.3s0.5-0.3,1.1-1.3
		c0.5-1,1.3-2.4,2.8-2.4c0.5,0.1,0.9,0.5,0.9,1.2c0.1,0.6-0.3,1.3-0.9,1.3c-0.4,0-0.5,0.3-1.1,1.3c-0.5,1-1.3,2.4-2.8,2.4
		s-2.3-1.5-2.8-2.4c-0.5-1-0.8-1.3-1.1-1.3s-0.5,0.3-1.1,1.3c-0.5,1-1.3,2.4-2.8,2.4c-1.5,0-2.3-1.5-2.8-2.4
		c-0.5-0.9-0.8-1.3-1.1-1.3c-0.3,0-0.6,0.3-1.1,1.3c-0.4,1-1.3,2.4-2.8,2.4s-2.3-1.5-2.8-2.4c-0.5-1-0.8-1.3-1.1-1.3
		c-0.4,0-0.6,0.3-1.1,1.3C313.5,389,312.6,390.4,311.1,390.4L311.1,390.4z"/>
	<path class="st8" d="M299.2,418.8c-1.4-0.2-2.9-0.4-4.3-0.6c0.4-2.3,0.7-4.6,1.1-6.9c4.6-30,9.1-60.1,13.7-90.1
		c1.4,0.2,2.8,0.4,4.2,0.6c-4.5,29.9-9.1,59.7-13.6,89.6C299.9,413.8,299.5,416.3,299.2,418.8z"/>
	<g>
		<path class="st5" d="M285.8,450.6l3.6-13.5"/>
		<path class="st2" d="M290,437.1l-3.6,13.5l0,0.1c-0.1,0.5-0.5,0.7-0.8,0.6l0,0c-0.3-0.2-0.5-0.6-0.4-1.1l3.6-13.5l0,0
			c0.1-0.5,0.4-0.7,0.8-0.8c0.3,0,0.5,0.4,0.5,0.9C290,437,290,437.1,290,437.1L290,437.1z"/>
		<path class="st4" d="M301.3,412.1l-9.2,35.1l0,0c-0.7,2.6-2.8,4.4-4.6,3.9l-3.5-0.9c-1.8-0.5-2.8-3-2.2-5.5l9.2-35.1l0,0
			c0.7-2.6,2.7-4.3,4.6-3.9l3.5,0.9C301,407,301.9,409.4,301.3,412.1z"/>
		<path class="st2" d="M301.9,412.3l-9.2,35.1c-0.8,3.1-3.2,5.1-5.4,4.6l-3.5-0.9c-2.2-0.5-3.3-3.5-2.5-6.6l9.2-35.1
			c0.8-3.1,3.2-5.1,5.4-4.6l3.5,0.9C301.6,406.3,302.6,409.2,301.9,412.3z M287.8,450.1c1.5,0.4,3.1-1.1,3.7-3.1l9.2-35.1
			c0.6-2.2-0.3-4.1-1.8-4.6l-3.5-0.9c-1.5-0.4-3.1,1.1-3.7,3.1l-9.2,35.1c-0.6,2.2,0.3,4.1,1.8,4.6L287.8,450.1z"/>
		<path class="st6" d="M297.9,415.3L297.9,415.3L297.9,415.3c0.6-2.1-0.2-4.1-1.7-4.4l0,0c-1.5-0.4-3.1,1.1-3.7,3.1
			c-0.6,2.1,0.2,4.1,1.7,4.4C295.7,418.8,297.3,417.4,297.9,415.3"/>
		<path class="st2" d="M298.5,415.5L298.5,415.5c-0.7,2.5-2.7,4.3-4.6,3.8c-1.8-0.5-2.8-2.9-2.1-5.5c0.7-2.5,2.7-4.3,4.6-3.8
			C298.2,410.5,299.2,412.9,298.5,415.5z M297.2,415.2L297.2,415.2c0.3-1.5-0.5-2.8-1.7-2.9c-1.2-0.1-2.3,0.9-2.7,2.5
			c-0.3,1.4,0.3,2.7,1.5,2.9C295.6,417.8,296.9,416.7,297.2,415.2L297.2,415.2z"/>
		<path class="st2" d="M294.6,437.4c0.4,0.1,0.5,0.6,0.4,1.1c-0.1,0.5-0.5,0.6-0.8,0.6l-10.2-2.5c-0.4-0.1-0.5-0.6-0.4-1.1
			c0.1-0.5,0.5-0.6,0.8-0.6L294.6,437.4z"/>
		<path class="st2" d="M296.9,428.7c0.4,0.1,0.5,0.6,0.4,1.1c-0.1,0.3-0.5,0.6-0.8,0.6l-10.2-2.5c-0.4-0.1-0.6-0.7-0.4-1.1
			c0.1-0.5,0.5-0.7,0.8-0.6L296.9,428.7z"/>
	</g>
	<path class="st9" d="M356.3,199.9c1.7,2.5,3.1,4.8,3.3,7.6c0.2,1.6-1.4,3.2-3.1,3.2c-1.6,0.1-3.1-1.4-3.2-3c0-0.7,0-1.4,0.3-1.9
		C354.4,203.9,355.3,202,356.3,199.9z"/>
	<path class="st10" d="M273.9,211.5c1.3,2,2.5,4,3,6.3c0.6,2.6-1.4,4.7-3.9,4.1c-1.5-0.4-2.6-2-2.3-3.6
		C271,216.5,272.6,213,273.9,211.5z"/>
	<path class="st9" d="M285.7,200c1.4,2.5,3,4.7,3.1,7.5c0.1,1.8-1.7,3.2-3.3,3.1c-2.1-0.1-3.2-2.1-3-3.7
		C283,204.4,284.3,202.3,285.7,200z"/>
	<path class="st9" d="M380.1,223.7c1.4,2.1,2.5,4,3,6.3c0.4,1.6-0.1,2.9-1.3,3.7c-1,0.7-2.5,0.7-3.6,0c-1.2-0.8-1.6-2.1-1.2-3.7
		C377.6,227.8,378.7,225.8,380.1,223.7z"/>
	<path class="st9" d="M380.1,245c1.4,2.1,2.5,4,3,6.3c0.4,1.6-0.1,2.9-1.3,3.7c-1,0.7-2.5,0.7-3.6,0c-1.2-0.8-1.6-2.1-1.2-3.7
		C377.6,249,378.7,247,380.1,245z"/>
	<path class="st9" d="M356.5,223.7c1.4,2.1,2.5,4,3,6.3c0.4,1.6-0.1,2.9-1.3,3.7c-1,0.7-2.5,0.7-3.6,0c-1.2-0.8-1.6-2.1-1.2-3.7
		C354.1,227.8,355.2,225.8,356.5,223.7z"/>
	<path class="st9" d="M368.3,211.4c1.5,2.3,2.8,4.4,3.1,7c0.2,1.4-0.4,2.5-1.6,3.2c-1.1,0.7-2.3,0.6-3.4-0.2c-1.1-0.8-1.6-2-1.2-3.2
		c0.6-1.8,1.5-3.6,2.2-5.4C367.6,212.3,367.9,212,368.3,211.4z"/>
	<path class="st10" d="M250.3,211.4c1.6,2.3,2.9,4.6,3.2,7.3c0.1,1.2-0.5,2.2-1.7,2.8c-1.2,0.6-2.3,0.6-3.4-0.2
		c-1.2-0.9-1.5-2.1-1.2-3.5C247.7,215.6,248.9,213.6,250.3,211.4z"/>
	<path class="st9" d="M332.9,200.1c1.5,2.3,2.8,4.4,3.1,6.9c0.2,1.4-0.3,2.5-1.5,3.2c-1.1,0.6-2.2,0.7-3.3-0.1
		c-1.2-0.8-1.7-2-1.4-3.5C330.3,204.3,331.5,202.3,332.9,200.1z"/>
	<path class="st10" d="M309.2,200.1c1.6,2.3,2.9,4.5,3.2,7.1c0.2,1.7-1.4,3.4-3.1,3.5c-1.8,0-3.4-1.5-3.1-3.2
		c0.2-1.6,0.9-3.1,1.5-4.6C308,201.9,308.6,201.1,309.2,200.1z"/>
	<path class="st9" d="M391.9,211.4c1.4,2.1,2.5,4.1,3,6.4c0.4,1.7-0.3,3.2-1.7,3.9c-1.3,0.6-2.9,0.2-3.9-1c-0.6-0.8-0.7-1.7-0.5-2.7
		C389.3,215.6,390.5,213.6,391.9,211.4z"/>
	<path class="st9" d="M391.9,234.3c1.4,2.1,2.5,4.1,3,6.4c0.4,1.7-0.3,3.2-1.7,3.9c-1.3,0.6-2.9,0.2-3.9-1c-0.6-0.8-0.7-1.7-0.5-2.7
		C389.4,238.5,390.6,236.5,391.9,234.3z"/>
	<path class="st9" d="M262.1,224.2c1.4,2,2.7,3.9,3.1,6.1c0.2,1.2-0.3,2.3-1.4,2.9c-1.1,0.6-2.3,0.6-3.4,0c-1.1-0.6-1.7-1.9-1.4-3.1
		C259.5,228.1,260.7,226.2,262.1,224.2z"/>
	<path class="st9" d="M270.8,241.4c1.4,2,2.7,3.9,3.1,6.1c0.2,1.2-0.3,2.3-1.4,2.9c-1.1,0.6-2.3,0.6-3.4,0c-1.1-0.6-1.7-1.9-1.4-3.1
		C268.2,245.2,269.3,243.3,270.8,241.4z"/>
	<path class="st9" d="M262.1,200.1c1.5,2.3,2.8,4.4,3.1,7c0.3,1.8-1.2,3.5-3,3.6c-1.7,0.1-3.4-1.5-3.3-3.4c0.1-0.9,0.3-1.8,0.6-2.6
		c0.3-0.9,0.8-1.7,1.2-2.5C261.2,201.5,261.6,200.9,262.1,200.1z"/>
	<path class="st9" d="M380.1,200.1c1.5,2.3,2.8,4.4,3.1,7c0.2,1.3-0.4,2.4-1.6,3.1c-1.1,0.6-2.2,0.6-3.2,0c-1.1-0.7-1.7-1.8-1.5-3.1
		C377.3,204.5,378.7,202.4,380.1,200.1z"/>
	<path class="st9" d="M285.7,223.7c1.5,2.5,3.1,4.8,3.1,7.7c0,1.9-1.7,3.1-3.6,2.9c-1.6-0.2-2.9-2-2.6-3.6
		C283,228.1,284.3,226,285.7,223.7z"/>
	<path class="st9" d="M297.5,235c1.5,2.5,3.1,4.8,3.1,7.7c0,1.9-1.7,3.1-3.6,2.9c-1.6-0.2-2.9-2-2.6-3.6
		C294.8,239.3,296,237.2,297.5,235z"/>
	<path class="st9" d="M231.8,129.7c1.5,2.5,3.1,4.8,3.1,7.7c0,1.9-1.7,3.1-3.6,2.9c-1.6-0.2-2.9-2-2.6-3.6
		C229.1,134.1,230.4,131.9,231.8,129.7z"/>
	<path class="st9" d="M297.5,211.4c1.4,2.4,2.8,4.5,3.1,7.1c0.2,1.8-1.2,3.4-3,3.5c-1.6,0.1-3.2-1.3-3.2-3c0-0.9,0.2-1.8,0.5-2.6
		c0.3-0.9,0.8-1.8,1.2-2.7C296.5,213,297,212.3,297.5,211.4z"/>
	<path class="st9" d="M317.1,215.9c1.4,2.4,2.8,4.5,3.1,7.1c0.2,1.8-1.2,3.4-3,3.5c-1.6,0.1-3.2-1.3-3.2-3c0-0.9,0.2-1.8,0.5-2.6
		c0.3-0.9,0.8-1.8,1.2-2.7C316.1,217.5,316.6,216.8,317.1,215.9z"/>
	<path class="st9" d="M356.5,245c1.4,2.4,2.8,4.5,3.1,7.1c0.2,1.8-1.2,3.4-3,3.5c-1.6,0.1-3.2-1.3-3.2-3c0-0.9,0.2-1.8,0.5-2.6
		c0.3-0.9,0.8-1.8,1.2-2.7C355.5,246.5,356,245.8,356.5,245z"/>
	<path class="st9" d="M250.3,240.2c1.4,2.4,2.8,4.5,3.1,7.1c0.2,1.8-1.2,3.4-3,3.5c-1.6,0.1-3.2-1.3-3.2-3c0-0.9,0.2-1.8,0.5-2.6
		c0.3-0.9,0.8-1.8,1.2-2.7C249.3,241.8,249.7,241.1,250.3,240.2z"/>
	<g>
		<path class="st9" d="M273.9,187.3c1.4,2.2,2.7,4.3,3.1,6.7c0.3,1.5-0.3,2.7-1.5,3.4c-1.1,0.7-2.3,0.6-3.4-0.1
			c-1.2-0.8-1.6-1.9-1.3-3.4C271.3,191.5,272.5,189.5,273.9,187.3z"/>
		<path class="st9" d="M391.9,187.3c1.5,2.4,3,4.6,3.1,7.4c0,2-1.5,3.3-3.7,3c-1.7-0.2-2.9-2-2.5-3.7
			C389.2,191.6,390.5,189.5,391.9,187.3z"/>
		<path class="st9" d="M250.3,187.3c1.4,2.2,2.6,4.2,3.1,6.6c0.3,1.4-0.2,2.6-1.3,3.4c-1,0.7-2.5,0.7-3.5,0c-1.2-0.8-1.6-2-1.3-3.4
			C247.7,191.5,248.9,189.4,250.3,187.3z"/>
		<path class="st9" d="M297.5,187.3c1.4,2.3,2.8,4.3,3.1,6.9c0.2,1.4-0.3,2.6-1.6,3.3c-1.1,0.6-2.3,0.5-3.4-0.2
			c-1.2-0.8-1.5-2.1-1.2-3.4C294.9,191.5,296.1,189.4,297.5,187.3z"/>
		<path class="st9" d="M368.3,187.3c1.4,2.3,2.7,4.4,3.1,6.9c0.2,1.2-0.4,2.5-1.5,3.1c-1.1,0.6-2.3,0.7-3.3,0
			c-1.2-0.8-1.8-2.1-1.4-3.5C365.8,191.5,366.8,189.4,368.3,187.3z"/>
		<path class="st9" d="M321.1,187.3c1.4,2.1,2.5,4.1,3,6.4c0.3,1.5-0.1,2.8-1.4,3.7c-0.9,0.6-2.6,0.6-3.4,0
			c-1.2-0.9-1.7-2.1-1.3-3.7C318.6,191.4,319.7,189.4,321.1,187.3z"/>
		<path class="st9" d="M344.7,187.2c1.4,2.6,3.1,4.8,3.1,7.6c0,1.9-1.4,3.1-3.5,3c-1.6-0.1-2.9-1.7-2.7-3.4
			C341.9,191.8,343.3,189.6,344.7,187.2z"/>
	</g>
	<g>
		<path class="st9" d="M120.1,187.3c1.4,2.2,2.7,4.3,3.1,6.7c0.3,1.5-0.3,2.7-1.5,3.4c-1.1,0.7-2.3,0.6-3.4-0.1
			c-1.2-0.8-1.6-1.9-1.3-3.4C117.5,191.6,118.7,189.5,120.1,187.3z"/>
		<path class="st9" d="M238.1,187.3c1.5,2.4,3,4.6,3.1,7.4c0,2-1.5,3.3-3.7,3c-1.7-0.2-2.9-2-2.5-3.7
			C235.4,191.6,236.6,189.5,238.1,187.3z"/>
		<path class="st9" d="M96.5,187.3c1.4,2.2,2.6,4.2,3.1,6.6c0.3,1.4-0.2,2.6-1.3,3.4c-1,0.7-2.5,0.7-3.5,0c-1.2-0.8-1.6-2-1.3-3.4
			C93.9,191.6,95.1,189.5,96.5,187.3z"/>
		<path class="st9" d="M143.7,187.3c1.4,2.3,2.8,4.3,3.1,6.9c0.2,1.4-0.3,2.6-1.6,3.3c-1.1,0.6-2.3,0.5-3.4-0.2
			c-1.2-0.8-1.5-2.1-1.2-3.4C141.1,191.5,142.3,189.5,143.7,187.3z"/>
		<path class="st9" d="M214.5,187.4c1.4,2.3,2.7,4.4,3.1,6.9c0.2,1.2-0.4,2.5-1.5,3.1c-1.1,0.6-2.3,0.7-3.3,0
			c-1.2-0.8-1.8-2.1-1.4-3.5C211.9,191.6,213,189.5,214.5,187.4z"/>
		<path class="st9" d="M167.3,187.4c1.4,2.1,2.5,4.1,3,6.4c0.3,1.5-0.1,2.8-1.4,3.7c-0.9,0.6-2.6,0.6-3.4,0
			c-1.2-0.9-1.7-2.1-1.3-3.7C164.7,191.4,165.9,189.5,167.3,187.4z"/>
		<path class="st9" d="M190.9,187.2c1.4,2.6,3.1,4.8,3.1,7.6c0,1.9-1.4,3.1-3.5,3c-1.6-0.1-2.9-1.7-2.7-3.4
			C188.1,191.8,189.5,189.7,190.9,187.2z"/>
	</g>
	<g>
		<path class="st9" d="M120.1,168c1.4,2.2,2.7,4.3,3.1,6.7c0.3,1.5-0.3,2.7-1.5,3.4c-1.1,0.7-2.3,0.6-3.4-0.1
			c-1.2-0.8-1.6-1.9-1.3-3.4C117.5,172.2,118.7,170.2,120.1,168z"/>
		<path class="st9" d="M238.1,168c1.5,2.4,3,4.6,3.1,7.4c0,2-1.5,3.3-3.7,3c-1.7-0.2-2.9-2-2.5-3.7
			C235.4,172.3,236.7,170.2,238.1,168z"/>
		<path class="st9" d="M96.5,168c1.4,2.2,2.6,4.2,3.1,6.6c0.3,1.4-0.2,2.6-1.3,3.4c-1,0.7-2.5,0.7-3.5,0c-1.2-0.8-1.6-2-1.3-3.4
			C93.9,172.2,95.1,170.2,96.5,168z"/>
		<path class="st9" d="M143.7,168c1.4,2.3,2.8,4.3,3.1,6.9c0.2,1.4-0.3,2.6-1.6,3.3c-1.1,0.6-2.3,0.5-3.4-0.2
			c-1.2-0.8-1.5-2.1-1.2-3.4C141.1,172.2,142.3,170.1,143.7,168z"/>
		<path class="st9" d="M214.5,168c1.4,2.3,2.7,4.4,3.1,6.9c0.2,1.2-0.4,2.5-1.5,3.1c-1.1,0.6-2.3,0.7-3.3,0
			c-1.2-0.8-1.8-2.1-1.4-3.5C212,172.2,213.1,170.1,214.5,168z"/>
		<path class="st9" d="M167.3,168c1.4,2.1,2.5,4.1,3,6.4c0.3,1.5-0.1,2.8-1.4,3.7c-0.9,0.6-2.6,0.6-3.4,0c-1.2-0.9-1.7-2.1-1.3-3.7
			C164.8,172.1,165.9,170.1,167.3,168z"/>
		<path class="st9" d="M190.9,167.9c1.4,2.6,3.1,4.8,3.1,7.6c0,1.9-1.4,3.1-3.5,3c-1.6-0.1-2.9-1.7-2.7-3.4
			C188.1,172.5,189.5,170.3,190.9,167.9z"/>
	</g>
	<g>
		<path class="st9" d="M117,148.8c1.4,2.2,2.7,4.3,3.1,6.7c0.3,1.5-0.3,2.7-1.5,3.4c-1.1,0.7-2.3,0.6-3.4-0.1
			c-1.2-0.8-1.6-1.9-1.3-3.4C114.4,153,115.6,151,117,148.8z"/>
		<path class="st9" d="M234.9,148.8c1.5,2.4,3,4.6,3.1,7.4c0,2-1.5,3.3-3.7,3c-1.7-0.2-2.9-2-2.5-3.7
			C232.3,153.1,233.5,151,234.9,148.8z"/>
		<path class="st9" d="M93.4,148.8c1.4,2.2,2.6,4.2,3.1,6.6c0.3,1.4-0.2,2.6-1.3,3.4c-1,0.7-2.5,0.7-3.5,0c-1.2-0.8-1.6-2-1.3-3.4
			C90.8,153,92,151,93.4,148.8z"/>
		<path class="st9" d="M140.6,148.8c1.4,2.3,2.8,4.3,3.1,6.9c0.2,1.4-0.3,2.6-1.6,3.3c-1.1,0.6-2.3,0.5-3.4-0.2
			c-1.2-0.8-1.5-2.1-1.2-3.4C138,153,139.1,151,140.6,148.8z"/>
		<path class="st9" d="M211.4,148.8c1.4,2.3,2.7,4.4,3.1,6.9c0.2,1.2-0.4,2.5-1.5,3.1c-1.1,0.6-2.3,0.7-3.3,0
			c-1.2-0.8-1.8-2.1-1.4-3.5C208.8,153,209.9,151,211.4,148.8z"/>
		<path class="st9" d="M164.1,148.9c1.4,2.1,2.5,4.1,3,6.4c0.3,1.5-0.1,2.8-1.4,3.7c-0.9,0.6-2.6,0.6-3.4,0
			c-1.2-0.9-1.7-2.1-1.3-3.7C161.6,152.9,162.8,150.9,164.1,148.9z"/>
		<path class="st9" d="M187.8,148.7c1.4,2.6,3.1,4.8,3.1,7.6c0,1.9-1.4,3.1-3.5,3c-1.6-0.1-2.9-1.7-2.7-3.4
			C184.9,153.3,186.4,151.2,187.8,148.7z"/>
	</g>
	<g>
		<path class="st9" d="M120.1,205.4c1.4,2.2,2.7,4.3,3.1,6.7c0.3,1.5-0.3,2.7-1.5,3.4c-1.1,0.7-2.3,0.6-3.4-0.1
			c-1.2-0.8-1.6-1.9-1.3-3.4C117.5,209.7,118.7,207.6,120.1,205.4z"/>
		<path class="st9" d="M238.1,205.4c1.5,2.4,3,4.6,3.1,7.4c0,2-1.5,3.3-3.7,3c-1.7-0.2-2.9-2-2.5-3.7
			C235.4,209.7,236.6,207.6,238.1,205.4z"/>
		<path class="st9" d="M96.5,205.4c1.4,2.2,2.6,4.2,3.1,6.6c0.3,1.4-0.2,2.6-1.3,3.4c-1,0.7-2.5,0.7-3.5,0c-1.2-0.8-1.6-2-1.3-3.4
			C93.9,209.7,95.1,207.6,96.5,205.4z"/>
		<path class="st9" d="M143.7,205.4c1.4,2.3,2.8,4.3,3.1,6.9c0.2,1.4-0.3,2.6-1.6,3.3c-1.1,0.6-2.3,0.5-3.4-0.2
			c-1.2-0.8-1.5-2.1-1.2-3.4C141.1,209.6,142.3,207.6,143.7,205.4z"/>
		<path class="st9" d="M214.5,205.5c1.4,2.3,2.7,4.4,3.1,6.9c0.2,1.2-0.4,2.5-1.5,3.1c-1.1,0.6-2.3,0.7-3.3,0
			c-1.2-0.8-1.8-2.1-1.4-3.5C211.9,209.6,213,207.6,214.5,205.5z"/>
		<path class="st9" d="M167.3,205.5c1.4,2.1,2.5,4.1,3,6.4c0.3,1.5-0.1,2.8-1.4,3.7c-0.9,0.6-2.6,0.6-3.4,0
			c-1.2-0.9-1.7-2.1-1.3-3.7C164.7,209.5,165.9,207.6,167.3,205.5z"/>
		<path class="st9" d="M190.9,205.3c1.4,2.6,3.1,4.8,3.1,7.6c0,1.9-1.4,3.1-3.5,3c-1.6-0.1-2.9-1.7-2.7-3.4
			C188.1,209.9,189.5,207.8,190.9,205.3z"/>
	</g>
	<g>
		<path class="st9" d="M120.1,223.5c1.4,2.2,2.7,4.3,3.1,6.7c0.3,1.5-0.3,2.7-1.5,3.4c-1.1,0.7-2.3,0.6-3.4-0.1
			c-1.2-0.8-1.6-1.9-1.3-3.4C117.5,227.7,118.7,225.7,120.1,223.5z"/>
		<path class="st9" d="M238.1,223.5c1.5,2.4,3,4.6,3.1,7.4c0,2-1.5,3.3-3.7,3c-1.7-0.2-2.9-2-2.5-3.7
			C235.4,227.8,236.6,225.7,238.1,223.5z"/>
		<path class="st9" d="M96.5,223.5c1.4,2.2,2.6,4.2,3.1,6.6c0.3,1.4-0.2,2.6-1.3,3.4c-1,0.7-2.5,0.7-3.5,0c-1.2-0.8-1.6-2-1.3-3.4
			C93.9,227.7,95.1,225.7,96.5,223.5z"/>
		<path class="st9" d="M143.7,223.5c1.4,2.3,2.8,4.3,3.1,6.9c0.2,1.4-0.3,2.6-1.6,3.3c-1.1,0.6-2.3,0.5-3.4-0.2
			c-1.2-0.8-1.5-2.1-1.2-3.4C141.1,227.7,142.3,225.7,143.7,223.5z"/>
		<path class="st9" d="M214.5,223.5c1.4,2.3,2.7,4.4,3.1,6.9c0.2,1.2-0.4,2.5-1.5,3.1c-1.1,0.6-2.3,0.7-3.3,0
			c-1.2-0.8-1.8-2.1-1.4-3.5C211.9,227.7,213,225.7,214.5,223.5z"/>
		<path class="st9" d="M167.3,223.6c1.4,2.1,2.5,4.1,3,6.4c0.3,1.5-0.1,2.8-1.4,3.7c-0.9,0.6-2.6,0.6-3.4,0
			c-1.2-0.9-1.7-2.1-1.3-3.7C164.7,227.6,165.9,225.6,167.3,223.6z"/>
		<path class="st9" d="M190.9,223.4c1.4,2.6,3.1,4.8,3.1,7.6c0,1.9-1.4,3.1-3.5,3c-1.6-0.1-2.9-1.7-2.7-3.4
			C188.1,228,189.5,225.9,190.9,223.4z"/>
	</g>
	<g>
		<path class="st9" d="M120.1,241.6c1.4,2.2,2.7,4.3,3.1,6.7c0.3,1.5-0.3,2.7-1.5,3.4c-1.1,0.7-2.3,0.6-3.4-0.1
			c-1.2-0.8-1.6-1.9-1.3-3.4C117.5,245.8,118.7,243.8,120.1,241.6z"/>
		<path class="st9" d="M238.1,241.6c1.5,2.4,3,4.6,3.1,7.4c0,2-1.5,3.3-3.7,3c-1.7-0.2-2.9-2-2.5-3.7
			C235.4,245.9,236.6,243.8,238.1,241.6z"/>
		<path class="st9" d="M96.5,241.6c1.4,2.2,2.6,4.2,3.1,6.6c0.3,1.4-0.2,2.6-1.3,3.4c-1,0.7-2.5,0.7-3.5,0c-1.2-0.8-1.6-2-1.3-3.4
			C93.9,245.8,95.1,243.8,96.5,241.6z"/>
		<path class="st9" d="M143.7,241.6c1.4,2.3,2.8,4.3,3.1,6.9c0.2,1.4-0.3,2.6-1.6,3.3c-1.1,0.6-2.3,0.5-3.4-0.2
			c-1.2-0.8-1.5-2.1-1.2-3.4C141.1,245.8,142.3,243.8,143.7,241.6z"/>
		<path class="st9" d="M214.5,241.6c1.4,2.3,2.7,4.4,3.1,6.9c0.2,1.2-0.4,2.5-1.5,3.1c-1.1,0.6-2.3,0.7-3.3,0
			c-1.2-0.8-1.8-2.1-1.4-3.5C211.9,245.8,213,243.8,214.5,241.6z"/>
		<path class="st9" d="M167.3,241.6c1.4,2.1,2.5,4.1,3,6.4c0.3,1.5-0.1,2.8-1.4,3.7c-0.9,0.6-2.6,0.6-3.4,0
			c-1.2-0.9-1.7-2.1-1.3-3.7C164.7,245.7,165.9,243.7,167.3,241.6z"/>
		<path class="st9" d="M190.9,241.5c1.4,2.6,3.1,4.8,3.1,7.6c0,1.9-1.4,3.1-3.5,3c-1.6-0.1-2.9-1.7-2.7-3.4
			C188.1,246.1,189.5,244,190.9,241.5z"/>
	</g>
	<g>
		<path class="st9" d="M120.1,259.7c1.4,2.2,2.7,4.3,3.1,6.7c0.3,1.5-0.3,2.7-1.5,3.4c-1.1,0.7-2.3,0.6-3.4-0.1
			c-1.2-0.8-1.6-1.9-1.3-3.4C117.5,263.9,118.7,261.9,120.1,259.7z"/>
		<path class="st9" d="M238.1,259.7c1.5,2.4,3,4.6,3.1,7.4c0,2-1.5,3.3-3.7,3c-1.7-0.2-2.9-2-2.5-3.7
			C235.4,264,236.6,261.9,238.1,259.7z"/>
		<path class="st9" d="M96.5,259.7c1.4,2.2,2.6,4.2,3.1,6.6c0.3,1.4-0.2,2.6-1.3,3.4c-1,0.7-2.5,0.7-3.5,0c-1.2-0.8-1.6-2-1.3-3.4
			C93.9,263.9,95.1,261.9,96.5,259.7z"/>
		<path class="st9" d="M143.7,259.7c1.4,2.3,2.8,4.3,3.1,6.9c0.2,1.4-0.3,2.6-1.6,3.3c-1.1,0.6-2.3,0.5-3.4-0.2
			c-1.2-0.8-1.5-2.1-1.2-3.4C141.1,263.9,142.3,261.9,143.7,259.7z"/>
		<path class="st9" d="M214.5,259.7c1.4,2.3,2.7,4.4,3.1,6.9c0.2,1.2-0.4,2.5-1.5,3.1c-1.1,0.6-2.3,0.7-3.3,0
			c-1.2-0.8-1.8-2.1-1.4-3.5C211.9,263.9,213,261.8,214.5,259.7z"/>
		<path class="st9" d="M167.3,259.7c1.4,2.1,2.5,4.1,3,6.4c0.3,1.5-0.1,2.8-1.4,3.7c-0.9,0.6-2.6,0.6-3.4,0
			c-1.2-0.9-1.7-2.1-1.3-3.7C164.7,263.8,165.9,261.8,167.3,259.7z"/>
		<path class="st9" d="M190.9,259.6c1.4,2.6,3.1,4.8,3.1,7.6c0,1.9-1.4,3.1-3.5,3c-1.6-0.1-2.9-1.7-2.7-3.4
			C188.1,264.2,189.5,262.1,190.9,259.6z"/>
	</g>
	<g>
		<path class="st9" d="M427.3,187.4c1.4,2.2,2.7,4.3,3.1,6.7c0.3,1.5-0.3,2.7-1.5,3.4c-1.1,0.7-2.3,0.6-3.4-0.1
			c-1.2-0.8-1.6-1.9-1.3-3.4C424.7,191.6,425.9,189.6,427.3,187.4z"/>
		<path class="st9" d="M545.3,187.4c1.5,2.4,3,4.6,3.1,7.4c0,2-1.5,3.3-3.7,3c-1.7-0.2-2.9-2-2.5-3.7
			C542.6,191.7,543.9,189.6,545.3,187.4z"/>
		<path class="st9" d="M403.7,187.4c1.4,2.2,2.6,4.2,3.1,6.6c0.3,1.4-0.2,2.6-1.3,3.4c-1,0.7-2.5,0.7-3.5,0c-1.2-0.8-1.6-2-1.3-3.4
			C401.1,191.6,402.3,189.6,403.7,187.4z"/>
		<path class="st9" d="M450.9,187.4c1.4,2.3,2.8,4.3,3.1,6.9c0.2,1.4-0.3,2.6-1.6,3.3c-1.1,0.6-2.3,0.5-3.4-0.2
			c-1.2-0.8-1.5-2.1-1.2-3.4C448.3,191.6,449.5,189.5,450.9,187.4z"/>
		<path class="st9" d="M521.7,187.4c1.4,2.3,2.7,4.4,3.1,6.9c0.2,1.2-0.4,2.5-1.5,3.1c-1.1,0.6-2.3,0.7-3.3,0
			c-1.2-0.8-1.8-2.1-1.4-3.5C519.1,191.6,520.2,189.5,521.7,187.4z"/>
		<path class="st9" d="M474.5,187.4c1.4,2.1,2.5,4.1,3,6.4c0.3,1.5-0.1,2.8-1.4,3.7c-0.9,0.6-2.6,0.6-3.4,0
			c-1.2-0.9-1.7-2.1-1.3-3.7C472,191.5,473.1,189.5,474.5,187.4z"/>
		<path class="st9" d="M498.1,187.3c1.4,2.6,3.1,4.8,3.1,7.6c0,1.9-1.4,3.1-3.5,3c-1.6-0.1-2.9-1.7-2.7-3.4
			C495.3,191.9,496.7,189.8,498.1,187.3z"/>
	</g>
	<g>
		<path class="st9" d="M427.3,171.6c1.4,2.2,2.7,4.3,3.1,6.7c0.3,1.5-0.3,2.7-1.5,3.4c-1.1,0.7-2.3,0.6-3.4-0.1
			c-1.2-0.8-1.6-1.9-1.3-3.4C424.8,175.9,426,173.8,427.3,171.6z"/>
		<path class="st9" d="M545.3,171.6c1.5,2.4,3,4.6,3.1,7.4c0,2-1.5,3.3-3.7,3c-1.7-0.2-2.9-2-2.5-3.7
			C542.7,175.9,543.9,173.8,545.3,171.6z"/>
		<path class="st9" d="M403.8,171.6c1.4,2.2,2.6,4.2,3.1,6.6c0.3,1.4-0.2,2.6-1.3,3.4c-1,0.7-2.5,0.7-3.5,0c-1.2-0.8-1.6-2-1.3-3.4
			C401.2,175.9,402.3,173.8,403.8,171.6z"/>
		<path class="st9" d="M451,171.6c1.4,2.3,2.8,4.3,3.1,6.9c0.2,1.4-0.3,2.6-1.6,3.3c-1.1,0.6-2.3,0.5-3.4-0.2
			c-1.2-0.8-1.5-2.1-1.2-3.4C448.4,175.8,449.5,173.8,451,171.6z"/>
		<path class="st9" d="M521.7,171.7c1.4,2.3,2.7,4.4,3.1,6.9c0.2,1.2-0.4,2.5-1.5,3.1c-1.1,0.6-2.3,0.7-3.3,0
			c-1.2-0.8-1.8-2.1-1.4-3.5C519.2,175.8,520.3,173.8,521.7,171.7z"/>
		<path class="st9" d="M474.5,171.7c1.4,2.1,2.5,4.1,3,6.4c0.3,1.5-0.1,2.8-1.4,3.7c-0.9,0.6-2.6,0.6-3.4,0
			c-1.2-0.9-1.7-2.1-1.3-3.7C472,175.7,473.2,173.8,474.5,171.7z"/>
		<path class="st9" d="M498.1,171.5c1.4,2.6,3.1,4.8,3.1,7.6c0,1.9-1.4,3.1-3.5,3c-1.6-0.1-2.9-1.7-2.7-3.4
			C495.3,176.1,496.7,174,498.1,171.5z"/>
	</g>
	<g>
		<path class="st9" d="M427.4,155.9c1.4,2.2,2.7,4.3,3.1,6.7c0.3,1.5-0.3,2.7-1.5,3.4c-1.1,0.7-2.3,0.6-3.4-0.1
			c-1.2-0.8-1.6-1.9-1.3-3.4C424.8,160.1,426,158.1,427.4,155.9z"/>
		<path class="st9" d="M545.4,155.9c1.5,2.4,3,4.6,3.1,7.4c0,2-1.5,3.3-3.7,3c-1.7-0.2-2.9-2-2.5-3.7
			C542.7,160.2,544,158.1,545.4,155.9z"/>
		<path class="st9" d="M403.8,155.9c1.4,2.2,2.6,4.2,3.1,6.6c0.3,1.4-0.2,2.6-1.3,3.4c-1,0.7-2.5,0.7-3.5,0c-1.2-0.8-1.6-2-1.3-3.4
			C401.2,160.1,402.4,158,403.8,155.9z"/>
		<path class="st9" d="M451,155.9c1.4,2.3,2.8,4.3,3.1,6.9c0.2,1.4-0.3,2.6-1.6,3.3c-1.1,0.6-2.3,0.5-3.4-0.2
			c-1.2-0.8-1.5-2.1-1.2-3.4C448.4,160.1,449.6,158,451,155.9z"/>
		<path class="st9" d="M521.8,155.9c1.4,2.3,2.7,4.4,3.1,6.9c0.2,1.2-0.4,2.5-1.5,3.1c-1.1,0.6-2.3,0.7-3.3,0
			c-1.2-0.8-1.8-2.1-1.4-3.5C519.3,160.1,520.4,158,521.8,155.9z"/>
		<path class="st9" d="M474.6,155.9c1.4,2.1,2.5,4.1,3,6.4c0.3,1.5-0.1,2.8-1.4,3.7c-0.9,0.6-2.6,0.6-3.4,0
			c-1.2-0.9-1.7-2.1-1.3-3.7C472.1,160,473.2,158,474.6,155.9z"/>
		<path class="st9" d="M498.2,155.8c1.4,2.6,3.1,4.8,3.1,7.6c0,1.9-1.4,3.1-3.5,3c-1.6-0.1-2.9-1.7-2.7-3.4
			C495.4,160.3,496.8,158.2,498.2,155.8z"/>
	</g>
	<g>
		<path class="st9" d="M427.5,140.1c1.4,2.2,2.7,4.3,3.1,6.7c0.3,1.5-0.3,2.7-1.5,3.4c-1.1,0.7-2.3,0.6-3.4-0.1
			c-1.2-0.8-1.6-1.9-1.3-3.4C424.9,144.3,426.1,142.3,427.5,140.1z"/>
		<path class="st9" d="M545.4,140.1c1.5,2.4,3,4.6,3.1,7.4c0,2-1.5,3.3-3.7,3c-1.7-0.2-2.9-2-2.5-3.7
			C542.8,144.4,544,142.3,545.4,140.1z"/>
		<path class="st9" d="M403.9,140.1c1.4,2.2,2.6,4.2,3.1,6.6c0.3,1.4-0.2,2.6-1.3,3.4c-1,0.7-2.5,0.7-3.5,0c-1.2-0.8-1.6-2-1.3-3.4
			C401.3,144.3,402.5,142.3,403.9,140.1z"/>
		<path class="st9" d="M451.1,140.1c1.4,2.3,2.8,4.3,3.1,6.9c0.2,1.4-0.3,2.6-1.6,3.3c-1.1,0.6-2.3,0.5-3.4-0.2
			c-1.2-0.8-1.5-2.1-1.2-3.4C448.5,144.3,449.6,142.3,451.1,140.1z"/>
		<path class="st9" d="M521.9,140.1c1.4,2.3,2.7,4.4,3.1,6.9c0.2,1.2-0.4,2.5-1.5,3.1c-1.1,0.6-2.3,0.7-3.3,0
			c-1.2-0.8-1.8-2.1-1.4-3.5C519.3,144.3,520.4,142.2,521.9,140.1z"/>
		<path class="st9" d="M474.6,140.1c1.4,2.1,2.5,4.1,3,6.4c0.3,1.5-0.1,2.8-1.4,3.7c-0.9,0.6-2.6,0.6-3.4,0
			c-1.2-0.9-1.7-2.1-1.3-3.7C472.1,144.2,473.3,142.2,474.6,140.1z"/>
		<path class="st9" d="M498.3,140c1.4,2.6,3.1,4.8,3.1,7.6c0,1.9-1.4,3.1-3.5,3c-1.6-0.1-2.9-1.7-2.7-3.4
			C495.4,144.6,496.8,142.5,498.3,140z"/>
	</g>
	<path class="st9" d="M427.5,124.3c1.4,2.2,2.7,4.3,3.1,6.7c0.3,1.5-0.3,2.7-1.5,3.4c-1.1,0.7-2.3,0.6-3.4-0.1
		c-1.2-0.8-1.6-1.9-1.3-3.4C424.9,128.6,426.1,126.5,427.5,124.3z"/>
	<path class="st9" d="M403.9,124.3c1.4,2.2,2.6,4.2,3.1,6.6c0.3,1.4-0.2,2.6-1.3,3.4c-1,0.7-2.5,0.7-3.5,0c-1.2-0.8-1.6-2-1.3-3.4
		C401.3,128.6,402.5,126.5,403.9,124.3z"/>
	<path class="st9" d="M451.1,124.3c1.4,2.3,2.8,4.3,3.1,6.9c0.2,1.4-0.3,2.6-1.6,3.3c-1.1,0.6-2.3,0.5-3.4-0.2
		c-1.2-0.8-1.5-2.1-1.2-3.4C448.5,128.5,449.7,126.5,451.1,124.3z"/>
	<path class="st9" d="M521.9,124.4c1.4,2.3,2.7,4.4,3.1,6.9c0.2,1.2-0.4,2.5-1.5,3.1c-1.1,0.6-2.3,0.7-3.3,0
		c-1.2-0.8-1.8-2.1-1.4-3.5C519.4,128.6,520.5,126.5,521.9,124.4z"/>
	<path class="st9" d="M474.7,124.4c1.4,2.1,2.5,4.1,3,6.4c0.3,1.5-0.1,2.8-1.4,3.7c-0.9,0.6-2.6,0.6-3.4,0c-1.2-0.9-1.7-2.1-1.3-3.7
		C472.2,128.4,473.4,126.5,474.7,124.4z"/>
	<path class="st9" d="M498.3,124.2c1.4,2.6,3.1,4.8,3.1,7.6c0,1.9-1.4,3.1-3.5,3c-1.6-0.1-2.9-1.7-2.7-3.4
		C495.5,128.8,496.9,126.7,498.3,124.2z"/>
	<g>
		<path class="st9" d="M427.3,203.2c1.4,2.2,2.7,4.3,3.1,6.7c0.3,1.5-0.3,2.7-1.5,3.4c-1.1,0.7-2.3,0.6-3.4-0.1
			c-1.2-0.8-1.6-1.9-1.3-3.4C424.7,207.4,425.9,205.4,427.3,203.2z"/>
		<path class="st9" d="M545.3,203.2c1.5,2.4,3,4.6,3.1,7.4c0,2-1.5,3.3-3.7,3c-1.7-0.2-2.9-2-2.5-3.7
			C542.7,207.5,543.9,205.4,545.3,203.2z"/>
		<path class="st9" d="M403.7,203.2c1.4,2.2,2.6,4.2,3.1,6.6c0.3,1.4-0.2,2.6-1.3,3.4c-1,0.7-2.5,0.7-3.5,0c-1.2-0.8-1.6-2-1.3-3.4
			C401.1,207.4,402.3,205.3,403.7,203.2z"/>
		<path class="st9" d="M450.9,203.2c1.4,2.3,2.8,4.3,3.1,6.9c0.2,1.4-0.3,2.6-1.6,3.3c-1.1,0.6-2.3,0.5-3.4-0.2
			c-1.2-0.8-1.5-2.1-1.2-3.4C448.3,207.3,449.5,205.3,450.9,203.2z"/>
		<path class="st9" d="M521.7,203.2c1.4,2.3,2.7,4.4,3.1,6.9c0.2,1.2-0.4,2.5-1.5,3.1c-1.1,0.6-2.3,0.7-3.3,0
			c-1.2-0.8-1.8-2.1-1.4-3.5C519.2,207.4,520.3,205.3,521.7,203.2z"/>
		<path class="st9" d="M474.5,203.2c1.4,2.1,2.5,4.1,3,6.4c0.3,1.5-0.1,2.8-1.4,3.7c-0.9,0.6-2.6,0.6-3.4,0
			c-1.2-0.9-1.7-2.1-1.3-3.7C472,207.3,473.2,205.3,474.5,203.2z"/>
		<path class="st9" d="M498.1,203.1c1.4,2.6,3.1,4.8,3.1,7.6c0,1.9-1.4,3.1-3.5,3c-1.6-0.1-2.9-1.7-2.7-3.4
			C495.3,207.6,496.7,205.5,498.1,203.1z"/>
	</g>
	<g>
		<path class="st9" d="M427.3,218.9c1.4,2.2,2.7,4.3,3.1,6.7c0.3,1.5-0.3,2.7-1.5,3.4c-1.1,0.7-2.3,0.6-3.4-0.1
			c-1.2-0.8-1.6-1.9-1.3-3.4C424.7,223.1,425.9,221.1,427.3,218.9z"/>
		<path class="st9" d="M545.3,218.9c1.5,2.4,3,4.6,3.1,7.4c0,2-1.5,3.3-3.7,3c-1.7-0.2-2.9-2-2.5-3.7
			C542.7,223.2,543.9,221.1,545.3,218.9z"/>
		<path class="st9" d="M403.7,218.9c1.4,2.2,2.6,4.2,3.1,6.6c0.3,1.4-0.2,2.6-1.3,3.4c-1,0.7-2.5,0.7-3.5,0c-1.2-0.8-1.6-2-1.3-3.4
			C401.1,223.1,402.3,221.1,403.7,218.9z"/>
		<path class="st9" d="M450.9,218.9c1.4,2.3,2.8,4.3,3.1,6.9c0.2,1.4-0.3,2.6-1.6,3.3c-1.1,0.6-2.3,0.5-3.4-0.2
			c-1.2-0.8-1.5-2.1-1.2-3.4C448.3,223.1,449.5,221.1,450.9,218.9z"/>
		<path class="st9" d="M521.7,218.9c1.4,2.3,2.7,4.4,3.1,6.9c0.2,1.2-0.4,2.5-1.5,3.1c-1.1,0.6-2.3,0.7-3.3,0
			c-1.2-0.8-1.8-2.1-1.4-3.5C519.2,223.1,520.3,221.1,521.7,218.9z"/>
		<path class="st9" d="M474.5,219c1.4,2.1,2.5,4.1,3,6.4c0.3,1.5-0.1,2.8-1.4,3.7c-0.9,0.6-2.6,0.6-3.4,0c-1.2-0.9-1.7-2.1-1.3-3.7
			C472,223,473.2,221,474.5,219z"/>
		<path class="st9" d="M498.1,218.8c1.4,2.6,3.1,4.8,3.1,7.6c0,1.9-1.4,3.1-3.5,3c-1.6-0.1-2.9-1.7-2.7-3.4
			C495.3,223.4,496.7,221.3,498.1,218.8z"/>
	</g>
	<g>
		<path class="st9" d="M427.3,234.7c1.4,2.2,2.7,4.3,3.1,6.7c0.3,1.5-0.3,2.7-1.5,3.4c-1.1,0.7-2.3,0.6-3.4-0.1
			c-1.2-0.8-1.6-1.9-1.3-3.4C424.7,238.9,425.9,236.9,427.3,234.7z"/>
		<path class="st9" d="M545.3,234.7c1.5,2.4,3,4.6,3.1,7.4c0,2-1.5,3.3-3.7,3c-1.7-0.2-2.9-2-2.5-3.7
			C542.7,239,543.9,236.9,545.3,234.7z"/>
		<path class="st9" d="M403.7,234.7c1.4,2.2,2.6,4.2,3.1,6.6c0.3,1.4-0.2,2.6-1.3,3.4c-1,0.7-2.5,0.7-3.5,0c-1.2-0.8-1.6-2-1.3-3.4
			C401.1,238.9,402.3,236.9,403.7,234.7z"/>
		<path class="st9" d="M450.9,234.7c1.4,2.3,2.8,4.3,3.1,6.9c0.2,1.4-0.3,2.6-1.6,3.3c-1.1,0.6-2.3,0.5-3.4-0.2
			c-1.2-0.8-1.5-2.1-1.2-3.4C448.3,238.9,449.5,236.8,450.9,234.7z"/>
		<path class="st9" d="M521.7,234.7c1.4,2.3,2.7,4.4,3.1,6.9c0.2,1.2-0.4,2.5-1.5,3.1c-1.1,0.6-2.3,0.7-3.3,0
			c-1.2-0.8-1.8-2.1-1.4-3.5C519.2,238.9,520.3,236.8,521.7,234.7z"/>
		<path class="st9" d="M474.5,234.7c1.4,2.1,2.5,4.1,3,6.4c0.3,1.5-0.1,2.8-1.4,3.7c-0.9,0.6-2.6,0.6-3.4,0
			c-1.2-0.9-1.7-2.1-1.3-3.7C472,238.8,473.2,236.8,474.5,234.7z"/>
		<path class="st9" d="M498.1,234.6c1.4,2.6,3.1,4.8,3.1,7.6c0,1.9-1.4,3.1-3.5,3c-1.6-0.1-2.9-1.7-2.7-3.4
			C495.3,239.2,496.7,237,498.1,234.6z"/>
	</g>
	<g>
		<path class="st9" d="M427.3,250.5c1.4,2.2,2.7,4.3,3.1,6.7c0.3,1.5-0.3,2.7-1.5,3.4c-1.1,0.7-2.3,0.6-3.4-0.1
			c-1.2-0.8-1.6-1.9-1.3-3.4C424.7,254.7,425.9,252.7,427.3,250.5z"/>
		<path class="st9" d="M545.3,250.5c1.5,2.4,3,4.6,3.1,7.4c0,2-1.5,3.3-3.7,3c-1.7-0.2-2.9-2-2.5-3.7
			C542.7,254.7,543.9,252.7,545.3,250.5z"/>
		<path class="st9" d="M403.7,250.4c1.4,2.2,2.6,4.2,3.1,6.6c0.3,1.4-0.2,2.6-1.3,3.4c-1,0.7-2.5,0.7-3.5,0c-1.2-0.8-1.6-2-1.3-3.4
			C401.1,254.7,402.3,252.6,403.7,250.4z"/>
		<path class="st9" d="M450.9,250.5c1.4,2.3,2.8,4.3,3.1,6.9c0.2,1.4-0.3,2.6-1.6,3.3c-1.1,0.6-2.3,0.5-3.4-0.2
			c-1.2-0.8-1.5-2.1-1.2-3.4C448.3,254.6,449.5,252.6,450.9,250.5z"/>
		<path class="st9" d="M521.7,250.5c1.4,2.3,2.7,4.4,3.1,6.9c0.2,1.2-0.4,2.5-1.5,3.1c-1.1,0.6-2.3,0.7-3.3,0
			c-1.2-0.8-1.8-2.1-1.4-3.5C519.2,254.7,520.3,252.6,521.7,250.5z"/>
		<path class="st9" d="M474.5,250.5c1.4,2.1,2.5,4.1,3,6.4c0.3,1.5-0.1,2.8-1.4,3.7c-0.9,0.6-2.6,0.6-3.4,0
			c-1.2-0.9-1.7-2.1-1.3-3.7C472,254.6,473.2,252.6,474.5,250.5z"/>
		<path class="st9" d="M498.1,250.3c1.4,2.6,3.1,4.8,3.1,7.6c0,1.9-1.4,3.1-3.5,3c-1.6-0.1-2.9-1.7-2.7-3.4
			C495.3,254.9,496.7,252.8,498.1,250.3z"/>
	</g>
	<g>
		<path class="st9" d="M273.9,168c1.4,2.2,2.7,4.3,3.1,6.7c0.3,1.5-0.3,2.7-1.5,3.4c-1.1,0.7-2.3,0.6-3.4-0.1
			c-1.2-0.8-1.6-1.9-1.3-3.4C271.3,172.2,272.5,170.2,273.9,168z"/>
		<path class="st9" d="M391.9,168c1.5,2.4,3,4.6,3.1,7.4c0,2-1.5,3.3-3.7,3c-1.7-0.2-2.9-2-2.5-3.7
			C389.2,172.3,390.5,170.2,391.9,168z"/>
		<path class="st9" d="M250.3,168c1.4,2.2,2.6,4.2,3.1,6.6c0.3,1.4-0.2,2.6-1.3,3.4c-1,0.7-2.5,0.7-3.5,0c-1.2-0.8-1.6-2-1.3-3.4
			C247.7,172.2,248.9,170.2,250.3,168z"/>
		<path class="st9" d="M297.5,168c1.4,2.3,2.8,4.3,3.1,6.9c0.2,1.4-0.3,2.6-1.6,3.3c-1.1,0.6-2.3,0.5-3.4-0.2
			c-1.2-0.8-1.5-2.1-1.2-3.4C294.9,172.2,296.1,170.2,297.5,168z"/>
		<path class="st9" d="M368.3,168c1.4,2.3,2.7,4.4,3.1,6.9c0.2,1.2-0.4,2.5-1.5,3.1c-1.1,0.6-2.3,0.7-3.3,0
			c-1.2-0.8-1.8-2.1-1.4-3.5C365.8,172.2,366.8,170.2,368.3,168z"/>
		<path class="st9" d="M321.1,168.1c1.4,2.1,2.5,4.1,3,6.4c0.3,1.5-0.1,2.8-1.4,3.7c-0.9,0.6-2.6,0.6-3.4,0
			c-1.2-0.9-1.7-2.1-1.3-3.7C318.6,172.1,319.7,170.1,321.1,168.1z"/>
		<path class="st9" d="M344.7,167.9c1.4,2.6,3.1,4.8,3.1,7.6c0,1.9-1.4,3.1-3.5,3c-1.6-0.1-2.9-1.7-2.7-3.4
			C341.9,172.5,343.3,170.4,344.7,167.9z"/>
	</g>
	<g>
		<path class="st9" d="M273.9,148.8c1.4,2.2,2.7,4.3,3.1,6.7c0.3,1.5-0.3,2.7-1.5,3.4c-1.1,0.7-2.3,0.6-3.4-0.1
			c-1.2-0.8-1.6-1.9-1.3-3.4C271.3,153,272.5,151,273.9,148.8z"/>
		<path class="st9" d="M391.9,148.8c1.5,2.4,3,4.6,3.1,7.4c0,2-1.5,3.3-3.7,3c-1.7-0.2-2.9-2-2.5-3.7
			C389.2,153.1,390.5,151,391.9,148.8z"/>
		<path class="st9" d="M250.3,148.8c1.4,2.2,2.6,4.2,3.1,6.6c0.3,1.4-0.2,2.6-1.3,3.4c-1,0.7-2.5,0.7-3.5,0c-1.2-0.8-1.6-2-1.3-3.4
			C247.7,153,248.9,150.9,250.3,148.8z"/>
		<path class="st9" d="M297.5,148.8c1.4,2.3,2.8,4.3,3.1,6.9c0.2,1.4-0.3,2.6-1.6,3.3c-1.1,0.6-2.3,0.5-3.4-0.2
			c-1.2-0.8-1.5-2.1-1.2-3.4C294.9,153,296.1,150.9,297.5,148.8z"/>
		<path class="st9" d="M368.3,148.8c1.4,2.3,2.7,4.4,3.1,6.9c0.2,1.2-0.4,2.5-1.5,3.1c-1.1,0.6-2.3,0.7-3.3,0
			c-1.2-0.8-1.8-2.1-1.4-3.5C365.8,153,366.8,150.9,368.3,148.8z"/>
		<path class="st9" d="M321.1,148.8c1.4,2.1,2.5,4.1,3,6.4c0.3,1.5-0.1,2.8-1.4,3.7c-0.9,0.6-2.6,0.6-3.4,0
			c-1.2-0.9-1.7-2.1-1.3-3.7C318.6,152.9,319.7,150.9,321.1,148.8z"/>
		<path class="st9" d="M344.7,148.7c1.4,2.6,3.1,4.8,3.1,7.6c0,1.9-1.4,3.1-3.5,3c-1.6-0.1-2.9-1.7-2.7-3.4
			C341.9,153.2,343.3,151.1,344.7,148.7z"/>
	</g>
	<g>
		<path class="st9" d="M273.9,129.5c1.4,2.2,2.7,4.3,3.1,6.7c0.3,1.5-0.3,2.7-1.5,3.4c-1.1,0.7-2.3,0.6-3.4-0.1
			c-1.2-0.8-1.6-1.9-1.3-3.4C271.3,133.7,272.5,131.7,273.9,129.5z"/>
		<path class="st9" d="M391.9,129.5c1.5,2.4,3,4.6,3.1,7.4c0,2-1.5,3.3-3.7,3c-1.7-0.2-2.9-2-2.5-3.7
			C389.2,133.8,390.5,131.7,391.9,129.5z"/>
		<path class="st9" d="M250.3,129.5c1.4,2.2,2.6,4.2,3.1,6.6c0.3,1.4-0.2,2.6-1.3,3.4c-1,0.7-2.5,0.7-3.5,0c-1.2-0.8-1.6-2-1.3-3.4
			C247.7,133.7,248.9,131.7,250.3,129.5z"/>
		<path class="st9" d="M297.5,129.5c1.4,2.3,2.8,4.3,3.1,6.9c0.2,1.4-0.3,2.6-1.6,3.3c-1.1,0.6-2.3,0.5-3.4-0.2
			c-1.2-0.8-1.5-2.1-1.2-3.4C294.9,133.7,296.1,131.7,297.5,129.5z"/>
		<path class="st9" d="M368.3,129.5c1.4,2.3,2.7,4.4,3.1,6.9c0.2,1.2-0.4,2.5-1.5,3.1c-1.1,0.6-2.3,0.7-3.3,0
			c-1.2-0.8-1.8-2.1-1.4-3.5C365.8,133.7,366.8,131.6,368.3,129.5z"/>
		<path class="st9" d="M321.1,129.5c1.4,2.1,2.5,4.1,3,6.4c0.3,1.5-0.1,2.8-1.4,3.7c-0.9,0.6-2.6,0.6-3.4,0
			c-1.2-0.9-1.7-2.1-1.3-3.7C318.6,133.6,319.7,131.6,321.1,129.5z"/>
		<path class="st9" d="M344.7,129.4c1.4,2.6,3.1,4.8,3.1,7.6c0,1.9-1.4,3.1-3.5,3c-1.6-0.1-2.9-1.7-2.7-3.4
			C341.9,134,343.3,131.9,344.7,129.4z"/>
	</g>
	<g>
		<path class="st9" d="M273.8,113c1.4,2.2,2.7,4.3,3.1,6.7c0.3,1.5-0.3,2.7-1.5,3.4c-1.1,0.7-2.3,0.6-3.4-0.1
			c-1.2-0.8-1.6-1.9-1.3-3.4C271.2,117.3,272.4,115.2,273.8,113z"/>
		<path class="st9" d="M391.8,113.1c1.5,2.4,3,4.6,3.1,7.4c0,2-1.5,3.3-3.7,3c-1.7-0.2-2.9-2-2.5-3.7
			C389.2,117.3,390.4,115.2,391.8,113.1z"/>
		<path class="st9" d="M250.2,113c1.4,2.2,2.6,4.2,3.1,6.6c0.3,1.4-0.2,2.6-1.3,3.4c-1,0.7-2.5,0.7-3.5,0c-1.2-0.8-1.6-2-1.3-3.4
			C247.6,117.3,248.8,115.2,250.2,113z"/>
		<path class="st9" d="M297.4,113c1.4,2.3,2.8,4.3,3.1,6.9c0.2,1.4-0.3,2.6-1.6,3.3c-1.1,0.6-2.3,0.5-3.4-0.2
			c-1.2-0.8-1.5-2.1-1.2-3.4C294.8,117.2,296,115.2,297.4,113z"/>
		<path class="st9" d="M368.2,113.1c1.4,2.3,2.7,4.4,3.1,6.9c0.2,1.2-0.4,2.5-1.5,3.1c-1.1,0.6-2.3,0.7-3.3,0
			c-1.2-0.8-1.8-2.1-1.4-3.5C365.7,117.3,366.8,115.2,368.2,113.1z"/>
		<path class="st9" d="M321,113.1c1.4,2.1,2.5,4.1,3,6.4c0.3,1.5-0.1,2.8-1.4,3.7c-0.9,0.6-2.6,0.6-3.4,0c-1.2-0.9-1.7-2.1-1.3-3.7
			C318.5,117.1,319.7,115.2,321,113.1z"/>
		<path class="st9" d="M344.6,112.9c1.4,2.6,3.1,4.8,3.1,7.6c0,1.9-1.4,3.1-3.5,3c-1.6-0.1-2.9-1.7-2.7-3.4
			C341.8,117.5,343.2,115.4,344.6,112.9z"/>
	</g>
	<path class="st9" d="M276.4,97.6c1.4,2.2,2.7,4.3,3.1,6.7c0.3,1.5-0.3,2.7-1.5,3.4c-1.1,0.7-2.3,0.6-3.4-0.1
		c-1.2-0.8-1.6-1.9-1.3-3.4C273.8,101.8,275,99.8,276.4,97.6z"/>
	<path class="st9" d="M252.8,97.6c1.4,2.2,2.6,4.2,3.1,6.6c0.3,1.4-0.2,2.6-1.3,3.4c-1,0.7-2.5,0.7-3.5,0c-1.2-0.8-1.6-2-1.3-3.4
		C250.2,101.8,251.4,99.7,252.8,97.6z"/>
	<path class="st9" d="M300,97.6c1.4,2.3,2.8,4.3,3.1,6.9c0.2,1.4-0.3,2.6-1.6,3.3c-1.1,0.6-2.3,0.5-3.4-0.2
		c-1.2-0.8-1.5-2.1-1.2-3.4C297.4,101.8,298.6,99.7,300,97.6z"/>
	<path class="st9" d="M370.8,97.6c1.4,2.3,2.7,4.4,3.1,6.9c0.2,1.2-0.4,2.5-1.5,3.1c-1.1,0.6-2.3,0.7-3.3,0
		c-1.2-0.8-1.8-2.1-1.4-3.5C368.3,101.8,369.4,99.7,370.8,97.6z"/>
	<path class="st9" d="M323.6,97.6c1.4,2.1,2.5,4.1,3,6.4c0.3,1.5-0.1,2.8-1.4,3.7c-0.9,0.6-2.6,0.6-3.4,0c-1.2-0.9-1.7-2.1-1.3-3.7
		C321.1,101.7,322.3,99.7,323.6,97.6z"/>
	<path class="st9" d="M347.2,97.5c1.4,2.6,3.1,4.8,3.1,7.6c0,1.9-1.4,3.1-3.5,3c-1.6-0.1-2.9-1.7-2.7-3.4
		C344.4,102.1,345.8,99.9,347.2,97.5z"/>
	<path class="st9" d="M341.9,222.9c1.4,2.3,3,4.6,3,7.4c0,1.7-1.5,3.1-3.2,3c-1.8-0.1-3.2-1.7-3-3.5
		C339,227.9,340.7,224.2,341.9,222.9z"/>
	<g>
		<path class="st11" d="M284.4,323.8c-2.3-2.4-5.4-3.7-8.6-4.6c-9.2-2.6-18.6-3.8-28.1-2.9c-2.8,0.3-5.5,1.1-8.1,1.6
			c1.7-27.9,31.9-64.4,81.5-60.8c1.4-6.3,2.7-12.7,4.1-19c1.1,0.1,2.1,0.3,3.2,0.4c-0.3,6.5-0.5,12.9-0.8,19.4
			c24.2,4.6,42.7,16.8,54.9,36.8c9,14.8,10.9,31.5,8.9,42.8c-6.1-4.5-13.3-6-20.6-7.2c-5.7-0.9-11.3-1.4-17-0.8
			c-2.6,0.3-5.1,0.8-7.3,2.2c-0.1-0.3-0.2-0.5-0.1-0.8c0.2-3.3,0.7-6.7,0.7-10c0-4.1-0.1-8.2-0.4-12.3c-0.4-4.6-1.1-9.3-1.9-13.9
			c-1.1-6-2.5-11.9-5.4-17.4c-2-3.8-4.3-7.5-6.7-11.1c-2.2-3.2-5-6.1-8.2-8.6c-5.5,2.7-10.1,6.4-14.4,10.5
			c-7.4,7-12.9,15.3-16.6,24.5c-2,4.9-3.6,9.9-5,15c-1.3,4.5-2,9.1-3.1,13.6C285,322,284.6,322.9,284.4,323.8z"/>
		<path class="st12" d="M284.4,323.8c0.3-0.9,0.6-1.8,0.8-2.7c1-4.5,1.8-9.1,3.1-13.6c1.4-5.1,3.1-10.1,5-15
			c3.7-9.2,9.2-17.5,16.6-24.5c4.3-4.1,8.9-7.7,14.4-10.5c3.2,2.5,5.9,5.4,8.2,8.6c2.5,3.6,4.7,7.3,6.7,11.1
			c3,5.5,4.4,11.4,5.4,17.4c0.8,4.6,1.5,9.2,1.9,13.9c0.4,4.1,0.5,8.2,0.4,12.3c0,3.3-0.5,6.7-0.7,10c0,0.3,0.1,0.5,0.1,0.8
			c-0.5-0.1-1,0-1.3-0.2c-8.2-3.6-16.7-6.2-25.6-7.6c-2.4-0.3-4.8-0.6-7.1-0.9c-8.8-0.8-17.5-0.5-26.1,0.9
			C285.6,324,285,323.8,284.4,323.8z"/>
	</g>
	<path class="st13" d="M319.2,6.6l-297,171.5v343l297,171.5l297-171.5v-343L319.2,6.6z M565,491.5L319.3,633.4L73.5,491.5V207.8
		l245.8-142l245.7,142V491.5z"/>
	<line class="st14" x1="195.1" y1="552" x2="443.9" y2="552"/>
	<path class="st9" d="M319.2,65.8L73.4,207.7v283.8l245.8,141.9l245.7-141.9V207.7L319.2,65.8z M552.6,484.4L319.2,619.1L85.8,484.4
		V214.9L319.2,80.1l233.4,134.8V484.4z"/>
	<path class="st2" d="M248,638c-1.8-7.5-3.6-14.8-5.5-22.3c-2.6,4.5-5.1,8.8-7.6,13.2c-1-0.6-1.9-1.1-2.8-1.6
		c3.8-6.7,7.7-13.3,11.6-20.1c1.8,7.5,3.6,14.9,5.5,22.4c2.6-4.5,5.1-8.8,7.6-13.2c1,0.6,1.9,1.1,2.8,1.6
		C255.7,624.6,251.9,631.2,248,638z"/>
	<path class="st2" d="M130.7,548.2c-1,0.2-2,0.5-3,0.7c-0.2-0.8-0.4-1.6-0.7-2.3c-2.1-5.8-9.6-7.1-13.6-2.4c-3.4,4-2.7,9.5,1.6,12.4
		c3,2.1,7.5,0.8,8.6-1.5c-1.5-0.9-3-1.7-4.6-2.6c0.5-0.9,1-1.8,1.5-2.7c1.3,0.8,2.6,1.5,3.9,2.2c1.3,0.7,2.5,1.5,3.8,2.2
		c-2.5,6.1-9,8.3-14.4,5.3c-4.2-2.3-6.5-7.1-5.7-11.7c0.9-4.8,4.7-8.7,9.5-9.4C124,537.5,129.9,541.8,130.7,548.2z"/>
	<path class="st2" d="M181.3,592.3c-0.5,0.9-1,1.6-1.4,2.4c-0.4,0.8-0.9,0.9-1.7,0.8c-7-0.8-11.7-7.1-10.2-13.8
		c1-4.4,4.7-7.9,9.3-8.8c4.3-0.8,8.9,1.3,11.4,5c0.4,0.6,0.4,1,0,1.5c-0.5,0.7-0.9,1.5-1.5,2.5c-1.3-3-3.2-5.2-6.3-5.9
		c-1.8-0.4-3.6-0.1-5.2,0.7c-3.5,1.7-5.4,5.8-4.5,9.5C172.3,590.5,175.4,592.3,181.3,592.3z"/>
	<path class="st2" d="M161.4,564.8c-3.2,5.5-6.2,10.8-9.4,16.2c-1-0.6-1.8-1.1-2.8-1.6c3.1-5.4,6.2-10.7,9.4-16.2
		c-1.5-0.9-2.9-1.7-4.3-2.5c0.5-0.9,1-1.7,1.5-2.6c3.8,2.2,7.6,4.4,11.5,6.6c-0.5,0.8-0.9,1.6-1.5,2.6
		C164.3,566.5,162.9,565.7,161.4,564.8z"/>
	<path class="st2" d="M143.8,551.2c0.9,0.5,1.8,1,2.7,1.6c-3.6,6.3-7.3,12.6-10.9,18.9c-0.9-0.5-1.7-1-2.7-1.6
		C136.5,563.8,140.2,557.5,143.8,551.2z"/>
	<path class="st2" d="M220.8,620.8c-0.9-0.5-1.8-1-2.7-1.5c3.6-6.3,7.2-12.5,10.9-18.9c0.9,0.5,1.7,1,2.7,1.5
		C228,608.2,224.4,614.5,220.8,620.8z"/>
	<circle class="st2" cx="206.6" cy="595.2" r="11.5"/>
</g>
</svg>
