<?xml version="1.0" encoding="utf-8"?>
<!-- Generator: Adobe Illustrator 24.3.0, SVG Export Plug-In . SVG Version: 6.00 Build 0)  -->
<svg version="1.1" id="Layer_1" xmlns="http://www.w3.org/2000/svg" xmlns:xlink="http://www.w3.org/1999/xlink" x="0px" y="0px"
	 viewBox="0 0 610 701.2" style="enable-background:new 0 0 610 701.2;" xml:space="preserve">
<style type="text/css">
	.st0{fill:#BCD000;}
	.st1{fill:#00B91A;stroke:#24A200;stroke-miterlimit:10;}
	.st2{fill:#15003E;}
	.st3{fill:#FCFAFA;}
	.st4{fill:#FFFFFF;}
	.st5{fill:#25E899;}
	.st6{fill:#76DDC9;}
	.st7{fill:#EFF4EE;}
	.st8{fill:#C02B32;}
	.st9{fill:#BF2C33;}
	.st10{fill:#BD2C33;}
	.st11{fill:#BD3238;}
	.st12{fill:#B92F36;}
	.st13{fill:none;stroke:#3A3637;stroke-width:2;stroke-miterlimit:10;}
	.st14{fill:#FABC01;}
	.st15{fill:none;stroke:#3A3637;stroke-width:5;stroke-miterlimit:10;}
	.st16{fill:#0F6E3F;}
	.st17{fill:#BF2A31;}
</style>
<g>
	<polygon class="st0" points="538.4,485.5 538.4,216 305,81.3 71.6,216 71.6,485.5 305,620.2 	"/>
	<path class="st1" d="M305,7.6L8,179.1v343l297,171.5l297-171.5v-343L305,7.6z M550.8,492.5L305.1,634.4L59.3,492.5V208.7l245.8-142
		l245.7,142V492.5z"/>
	<path class="st2" d="M233.8,639c-1.8-7.5-3.6-14.8-5.5-22.3c-2.6,4.5-5.1,8.8-7.6,13.2c-1-0.6-1.9-1.1-2.8-1.6
		c3.8-6.7,7.7-13.3,11.6-20.1c1.8,7.5,3.6,14.9,5.5,22.4c2.6-4.5,5.1-8.8,7.6-13.2c1,0.6,1.9,1.1,2.8,1.6
		C241.5,625.6,237.7,632.1,233.8,639z"/>
	<path class="st2" d="M116.5,549.2c-1,0.2-2,0.5-3,0.7c-0.2-0.8-0.4-1.6-0.7-2.3c-2.1-5.8-9.6-7.1-13.6-2.4c-3.4,4-2.7,9.5,1.6,12.4
		c3,2.1,7.5,0.8,8.6-1.5c-1.5-0.9-3-1.7-4.6-2.6c0.5-0.9,1-1.8,1.5-2.7c1.3,0.8,2.6,1.5,3.9,2.2c1.3,0.7,2.5,1.5,3.8,2.2
		c-2.5,6.1-9,8.3-14.4,5.3c-4.2-2.3-6.5-7.1-5.7-11.7c0.9-4.8,4.7-8.7,9.5-9.4C109.8,538.4,115.7,542.8,116.5,549.2z"/>
	<path class="st2" d="M167.1,593.3c-0.5,0.9-1,1.6-1.4,2.4c-0.4,0.8-0.9,0.9-1.7,0.8c-7-0.8-11.7-7.1-10.2-13.8
		c1-4.4,4.7-7.9,9.3-8.8c4.3-0.8,8.9,1.3,11.4,5c0.4,0.6,0.4,1,0,1.5c-0.5,0.7-0.9,1.5-1.5,2.5c-1.3-3-3.2-5.2-6.3-5.9
		c-1.8-0.4-3.6-0.1-5.2,0.7c-3.5,1.7-5.4,5.8-4.5,9.5C158.1,591.4,161.2,593.3,167.1,593.3z"/>
	<path class="st2" d="M147.3,565.8c-3.2,5.5-6.2,10.8-9.4,16.2c-1-0.6-1.8-1.1-2.8-1.6c3.1-5.4,6.2-10.7,9.4-16.2
		c-1.5-0.9-2.9-1.7-4.3-2.5c0.5-0.9,1-1.7,1.5-2.6c3.8,2.2,7.6,4.4,11.5,6.6c-0.5,0.8-0.9,1.6-1.5,2.6
		C150.2,567.5,148.8,566.7,147.3,565.8z"/>
	<path class="st2" d="M129.6,552.1c0.9,0.5,1.8,1,2.7,1.6c-3.6,6.3-7.3,12.6-10.9,18.9c-0.9-0.5-1.7-1-2.7-1.6
		C122.4,564.8,126,558.5,129.6,552.1z"/>
	<path class="st2" d="M206.6,621.8c-0.9-0.5-1.8-1-2.7-1.5c3.6-6.3,7.2-12.5,10.9-18.9c0.9,0.5,1.7,1,2.7,1.5
		C213.9,609.2,210.2,615.4,206.6,621.8z"/>
	<circle class="st2" cx="192.4" cy="596.2" r="11.5"/>
	<rect x="351.2" y="532.9" class="st2" width="14.5" height="6.7"/>
	<rect x="329.4" y="532.9" class="st2" width="14.5" height="6.7"/>
	<rect x="244.6" y="533.1" class="st2" width="14.5" height="6.7"/>
	<rect x="266.4" y="533.1" class="st2" width="14.5" height="6.7"/>
	<g id="Layer_8">
		<path class="st3" d="M341.7,220.9l11.2-55.7c0-27.2-19.6-46.2-19.6-46.2c-15.1-12.9-35.8-9.3-35.8-9.3
			c-34.1,9.9-35.2,54.2-35.2,54.2l11.9,54.2L341.7,220.9z"/>
	</g>
	<path class="st4" d="M254.8,328.4v-41.6h101.8v41.6l0,0c0,16.2-10.6,29.6-23.5,29.6h-54.8C265.4,357.7,254.8,344.5,254.8,328.4z"/>
	<path class="st2" d="M252.8,328.4v-41.6c0-1.3,0.9-2.4,1.9-2.6h101.8c1.1,0,1.9,1.3,1.9,2.6v41.6c0,17.7-11.4,31.9-25.5,31.9h-54.8
		C264.3,360.1,252.8,345.8,252.8,328.4z M256.7,289.3v39.1c0,14.9,9.7,27,21.6,27h54.8c11.9,0,21.6-12.1,21.6-27v-39.1H256.7z"/>
	<rect x="254.8" y="316.1" class="st2" width="101.8" height="5"/>
	<path class="st2" d="M356.6,318.4h-99.5l-2.4,9.7l5.2,18.3l11.2,9.7l33.2,3l32.4-3.9l8.8-1.1l10.1-17L356.6,318.4L356.6,318.4z"/>
	<path class="st6" d="M295.8,320.2L295.8,320.2L295.8,320.2c0,7.3,4.7,13.2,10.6,13.2c5.8,0,10.6-5.8,10.6-13.2
		c0-7.3-4.7-13.2-10.6-13.2C300.5,307,295.8,312.8,295.8,320.2"/>
	<path class="st2" d="M293.8,320.2L293.8,320.2c0-8.6,5.6-15.5,12.5-15.5c6.9,0,12.5,6.9,12.5,15.5c0,8.6-5.6,15.5-12.5,15.5
		C299.5,335.7,293.8,328.8,293.8,320.2z M306.4,309.4c-4.7,0-8.6,4.7-8.6,10.6l0,0c0,5.8,3.9,10.6,8.6,10.6s8.6-4.7,8.6-10.6
		C315,314.1,311.1,309.4,306.4,309.4z"/>
	<path class="st6" d="M345.8,351.4L345.8,351.4c-0.2,3.5,2.2,6.3,5.2,6.5l0,0c3.2,0.4,6-2.2,6.3-5.8c0.2-3.7-1.9-6.7-5.2-7.1
		c-3.2-0.4-6,2.2-6.3,5.8C345.8,351,345.8,351.2,345.8,351.4"/>
	<path class="st6" d="M255.7,351.4L255.7,351.4c-0.2,3.5,2.2,6.3,5.2,6.5l0,0c3.2,0.4,6-2.4,6.3-5.8s-1.9-6.7-5.2-7.1
		c-3.2-0.4-6,2.4-6.3,5.8C255.4,351.2,255.4,351.4,255.7,351.4"/>
	<path class="st4" d="M344.5,432.6v-52.2l0,0v-0.9c0.2-5.8,4.1-10.4,8.6-10.1c4.5,0.2,8.2,5.2,8,11v62.8h-8.4
		C348.2,442.9,344.5,438.2,344.5,432.6z"/>
	<path class="st2" d="M342.6,432.6v-52.2c0-0.2,0-0.6,0-0.9c0.2-7.1,5-12.7,10.8-12.5c5.8,0.2,10.1,6.3,9.9,13.4v62.8
		c0,1.3-0.9,2.4-1.9,2.4H353C347.1,445.5,342.6,439.7,342.6,432.6z M359.4,380.3c0-3.9-2.6-7.3-6-7.8c-3.7,0-6.7,3.5-6.7,7.6l0,0
		v52.2c-0.2,4.3,2.6,7.8,6.5,8h6.5L359.4,380.3z"/>
	<path class="st2" d="M332.5,449.6v-69.9c0-1.3,0.6-2.4,1.7-2.4c1.1,0,2.2,0.9,2.2,2.2c0,0.2,0,0.2,0,0.4V450c0,1.3-0.6,2.4-1.7,2.4
		c-1.1,0-2.2-0.9-2.2-2.2C332.5,449.8,332.5,449.8,332.5,449.6L332.5,449.6z"/>
	<path class="st4" d="M339.6,483.5c-3.2-0.4-5.6-3.7-5.4-7.3c0-3.7,2.6-6.7,5.8-6.7l0,0h15.5c3.5,0.6,5.8,4.1,5.4,8
		c-0.4,3-2.6,5.6-5.4,6H339.6L339.6,483.5z"/>
	<path class="st2" d="M339.6,486.1c-4.1-0.2-7.6-4.7-7.3-9.9c0.2-5.2,3.7-9.3,8-9.1h15.5c4.1,0.4,7.3,4.3,7.3,9.1
		c0.2,5.2-3,9.7-7.3,9.9H339.6z M340.2,472c-2.2,0.2-3.9,2.4-3.7,5c0.2,2.2,1.7,3.9,3.7,4.1h15.5c2.2-0.2,3.9-2.4,3.7-5
		c-0.2-2.2-1.7-3.9-3.7-4.1H340.2z"/>
	<path class="st4" d="M327.1,532.9c-4.1-0.4-7.3-4.3-7.1-9.1c-0.2-5.2,3-9.5,7.1-9.7h38.8c4.1,0.4,7.3,4.3,7.1,9.1
		c0.2,5.2-3,9.5-7.1,9.7H327.1L327.1,532.9z"/>
	<path class="st2" d="M327.1,535.3L327.1,535.3c-5.2,0-9.5-5.4-9.5-11.9c0-6.5,4.3-11.9,9.5-11.9h38.8c5.2,0,9.5,5.4,9.5,11.9
		c0,6.5-4.3,11.9-9.5,11.9H327.1z M327.1,516.5c-3.2,0.2-5.6,3.2-5.6,6.9c0,1.7,0.6,3.5,1.5,5c1.1,1.3,2.4,1.9,3.9,1.9h38.8
		c3-0.4,5.4-3.2,5.2-6.7c0.2-3.7-2.2-6.9-5.2-7.3h-38.6V516.5z"/>
	<rect x="340.9" y="483.5" class="st4" width="14.9" height="30.6"/>
	<path class="st2" d="M340.9,516.5c-1.1,0-1.9-1.1-1.9-2.4l0,0v-30.6l0,0c0-1.3,0.9-2.4,1.9-2.4h14.9c1.1,0,1.9,1.1,1.9,2.4v30.6
		l0,0c0,1.3-0.9,2.4-1.9,2.4H340.9L340.9,516.5z M353.8,486.1h-11v25.5h11V486.1z"/>
	<path class="st2" d="M332.5,459.5c0-1.3,0.9-2.4,1.9-2.4h26.8c1.3,0.2,2.2,1.5,1.9,2.8c-0.2,1.1-0.9,1.9-1.9,2.2h-26.8
		C333.3,461.9,332.5,460.8,332.5,459.5z"/>
	<path class="st2" d="M351.2,542c-1.1,0-1.9-1.1-1.9-2.4v-6.7l0,0c0-1.3,0.9-2.4,1.9-2.4h14.5c1.1,0,1.9,1.1,1.9,2.4v6.5l0,0
		c0,1.3-0.9,2.4-1.9,2.4l0,0L351.2,542L351.2,542z M363.7,535.3h-10.4v1.7h10.4V535.3z"/>
	<path class="st2" d="M329.2,542c-1.1,0-1.9-1.1-1.9-2.4l0,0v-6.7l0,0c0-1.3,0.9-2.4,1.9-2.4h14.5c1.1,0,1.9,1.1,1.9,2.4v6.7
		c0,1.3-0.9,2.4-1.9,2.4H329.2z M341.7,535.3h-10.4v1.7h10.4V535.3z"/>
	<rect x="344.5" y="417.2" class="st2" width="16.8" height="5"/>
	<rect x="344.5" y="389.8" class="st2" width="16.8" height="5"/>
	<ellipse class="st6" cx="349.9" cy="451.1" rx="6.3" ry="7.8"/>
	<path class="st2" d="M341.5,451.1L341.5,451.1c0-5.8,3.7-10.4,8.4-10.4c4.5,0,8.2,4.7,8.2,10.4s-3.7,10.4-8.4,10.4
		S341.5,456.9,341.5,451.1z M345.6,451.1L345.6,451.1c0.2,2.6,2.4,4.5,4.7,4.3c2.4-0.2,4.1-2.8,3.9-5.4c-0.2-2.6-2.2-4.3-4.3-4.3
		C347.4,445.9,345.4,448.3,345.6,451.1L345.6,451.1L345.6,451.1z"/>
	<path class="st2" d="M348.2,472c-1.1,0-1.9-1.1-1.9-2.4v-9.9l0,0c0-1.3,0.6-2.4,1.7-2.4c1.1,0,2.2,0.9,2.2,2.2c0,0.2,0,0.2,0,0.4
		v9.9l0,0C350.4,470.8,349.5,471.8,348.2,472L348.2,472z"/>
	<path class="st2" d="M336.8,373.4c-0.9-1.1-0.9-2.6,0-3.5l7.6-9.5c0.4-0.4,0.9-0.6,1.5-0.6h10.4c1.3,0.2,2.2,1.3,1.9,2.8
		c-0.2,1.1-0.9,2.2-1.9,2.2h-9.5l-6.9,8.6c-0.4,0.4-0.9,0.6-1.5,0.6C337.6,374.1,337.2,373.9,336.8,373.4z"/>
	<path class="st4" d="M265.6,432.8v-52.2c0-0.9,0-1.5,0-2.4c-0.4-5.8-4.7-9.9-9.3-9.3c-4.7,0.6-8,5.8-7.6,11.7v62.8h8.4
		C261.9,443.1,265.6,438.6,265.6,432.8z"/>
	<path class="st2" d="M246.8,443.1v-63.6c0.2-7.1,5-12.7,10.8-12.5c5.8,0.2,10.1,6.3,10.1,13.4v52.2c0,7.1-4.7,12.9-10.4,12.9h-8.6
		C247.7,445.7,246.8,444.4,246.8,443.1z M257.2,372.4L257.2,372.4c-3.7,0.2-6.7,3.9-6.5,8v60.2h6.5c3.7-0.2,6.7-3.9,6.5-8v-52.2
		C263.9,376.2,261,372.6,257.2,372.4z"/>
	<path class="st2" d="M275.5,452.4c-1.1,0-1.9-1.1-1.9-2.4v-69.9l0,0c0-1.3,0.6-2.4,1.7-2.4c1.1,0,2.2,0.9,2.2,2.2
		c0,0.2,0,0.2,0,0.4v70.1C277.7,451.1,276.8,452.2,275.5,452.4L275.5,452.4z"/>
	<path class="st4" d="M275.3,477c0.2-3.7-2.2-6.9-5.4-7.3h-15.5c-3,0.4-5.4,3.2-5.4,6.7c-0.2,3.7,2.2,6.9,5.4,7.3h15.5
		C273.1,483.5,275.3,480.5,275.3,477z"/>
	<path class="st2" d="M254.4,486.3c-4.1-0.4-7.3-4.3-7.3-9.1c-0.2-5.2,3-9.7,7.3-9.9h15.5c4.1,0.4,7.3,4.3,7.3,9.1
		c0.2,5.2-3,9.7-7.3,9.9H254.4z M254.4,472.3c-2.2,0.2-3.9,2.4-3.7,5c0.2,2.2,1.7,3.9,3.7,4.1h15.5c2.2-0.2,3.9-2.4,3.7-5
		c-0.2-2.2-1.7-3.9-3.7-4.1H254.4z"/>
	<path class="st4" d="M290.4,524c0.2-5.2-3-9.5-7.1-9.7h-38.8c-4.1,0.4-7.3,4.3-7.1,9.1c-0.2,5.2,3,9.5,7.1,9.7h38.8
		C287.2,532.7,290.4,528.8,290.4,524z"/>
	<path class="st2" d="M243.6,535.7c-5.2-0.2-9.3-5.8-9.1-12.3c0.2-6.5,4.5-11.7,9.9-11.4h38.8c5,0.2,9.1,5.2,9.1,11.4
		c0.2,6.5-3.9,12.1-9.1,12.3H243.6z M244.2,516.7c-3,0.4-5.2,3.2-5.2,6.7c-0.2,3.7,2.2,6.9,5.2,7.3h38.8c3.5-0.6,5.8-4.1,5.2-8
		c-0.4-3-2.6-5.4-5.2-5.8h-38.8V516.7z"/>
	<rect x="254.4" y="483.7" class="st4" width="14.9" height="30.6"/>
	<path class="st2" d="M252.4,514.3v-30.6l0,0c0-1.3,0.9-2.4,1.9-2.4l0,0h14.9c1.1,0,1.9,1.1,1.9,2.4v30.6c0,1.3-0.9,2.4-1.9,2.4
		h-14.9C253.3,516.7,252.4,515.6,252.4,514.3z M267.3,486.3h-11V512h11V486.3z"/>
	<path class="st2" d="M246.8,459.7c0-1.3,0.9-2.4,1.9-2.4h26.8c1.3,0.2,2.2,1.3,1.9,2.8c-0.2,1.1-0.9,2.2-1.9,2.2h-26.8
		C247.7,462.3,246.8,461,246.8,459.7z"/>
	<path class="st2" d="M242.5,539.8v-6.7l0,0c0-1.3,0.9-2.4,1.9-2.4h14.5c1.1,0,1.9,1.1,1.9,2.4v6.7c0,1.3-0.9,2.4-1.9,2.4h-14.5
		C243.4,542.2,242.5,541.1,242.5,539.8z M256.9,535.7h-10.4v1.7h10.4V535.7z"/>
	<path class="st2" d="M264.5,539.8v-6.7l0,0c0-1.3,0.9-2.4,1.9-2.6l0,0h14.5c1.1,0,1.9,1.3,1.9,2.4v6.7l0,0c0,1.3-0.9,2.4-1.9,2.4
		h-14.5C265.4,542.2,264.5,541.1,264.5,539.8z M279,535.7h-10.4v1.7H279V535.7z"/>
	<rect x="248.7" y="417.5" class="st2" width="16.8" height="5"/>
	<rect x="248.7" y="390.3" class="st2" width="16.8" height="5"/>
	<ellipse class="st6" cx="260.4" cy="451.3" rx="6.3" ry="7.8"/>
	<path class="st2" d="M260.4,461.7c-4.5,0-8.2-4.5-8.2-10.4s3.7-10.4,8.2-10.4c4.5,0,8.2,4.5,8.2,10.4S264.9,461.7,260.4,461.7z
		 M260.4,445.9L260.4,445.9c-2.6-0.2-5,1.9-5.4,5c-0.4,3,1.7,5.6,4.3,6c2.6,0.2,5-1.9,5.4-5c0-0.2,0-0.4,0-0.6
		C264.7,448.5,262.8,446.2,260.4,445.9L260.4,445.9z"/>
	<path class="st2" d="M261.9,472.3c-1.1,0-1.9-1.1-1.9-2.6v-9.9c0-1.1,0.9-2.2,1.9-2.4c1.1,0,2.2,1.1,2.2,2.4l0,0v9.9
		C263.9,471,263,472,261.9,472.3z"/>
	<path class="st2" d="M270.5,373.7l-6.9-8.6h-9.5c-1.1-0.2-1.7-1.1-1.9-2.4c-0.2-1.3,0.6-2.6,1.9-2.6h10.4c0.4,0,1.1,0.2,1.5,0.6
		l7.6,9.5c0.4,0.4,0.6,1.1,0.6,1.7c0,1.3-0.9,2.4-1.9,2.4C271.4,374.3,271,374.1,270.5,373.7z"/>
	<rect x="355.5" y="316.9" class="st2" width="31.9" height="20.5"/>
	<g>
		<path class="st5" d="M386,317l-0.4,26.6"/>
		<path class="st2" d="M384.2,343.6l0.4-26.6v-0.2c0-0.9,0.6-1.6,1.3-1.6l0,0c0.6,0.2,1.3,0.9,1.1,1.8l-0.4,26.6l0,0
			c0,0.9-0.4,1.6-1.1,1.6s-1.3-0.5-1.5-1.4C384.2,343.8,384.2,343.8,384.2,343.6L384.2,343.6z"/>
		<path class="st2" d="M384.9,387.5l-0.4,23.9"/>
		<path class="st2" d="M383.2,411.6l0.4-23.9c0-0.9,0.6-1.4,1.3-1.6c0.6,0,1.3,0.7,1.3,1.6l0,0l-0.4,23.9l0,0c0,0.9-0.4,1.6-1.1,1.6
			c-0.6,0-1.3-0.5-1.5-1.4V411.6z"/>
		<g>
			<path class="st4" d="M373.9,394.7l1.1-68.9l0,0c0-5.2,3.2-9.2,7.3-9l7.3,0.2c3.9,0,7.1,4.3,6.9,9.5l-1.1,68.9l0,0
				c0,5.2-3.2,9.2-7.3,9l-7.3-0.2C376.9,404.2,373.9,399.9,373.9,394.7z"/>
			<path class="st2" d="M372.6,394.7l1.1-68.9c0-6.1,3.9-10.8,8.6-10.8l7.3,0.2c4.5,0,8.2,5.2,8.2,11.3l-1.1,68.9
				c0,6.1-3.9,10.8-8.6,10.8l-7.3-0.2C376.3,405.7,372.6,400.8,372.6,394.7z M382.3,318.6c-3.2,0-5.8,3.2-5.8,7.4l-1.1,68.9
				c0,4.3,2.4,7.7,5.6,7.7l7.3,0.2c3.2,0,5.8-3.2,5.8-7.4l1.1-68.9c0-4.3-2.4-7.7-5.6-7.7L382.3,318.6z"/>
			<path class="st6" d="M379.3,387.5L379.3,387.5L379.3,387.5c0,4.1,2.4,7.4,5.6,7.4l0,0c3.2,0,5.8-3.2,5.8-7.4s-2.4-7.4-5.6-7.7
				C381.9,380.1,379.3,383.2,379.3,387.5"/>
			<path class="st2" d="M377.8,387.5L377.8,387.5c0-5,3.2-9,7.1-9c3.9,0,6.9,4.3,6.9,9.2s-3.2,9-7.1,9
				C380.8,396.7,377.8,392.5,377.8,387.5z M380.4,387.5L380.4,387.5c0.2,2.9,2.4,5,4.7,4.7c2.4-0.2,4.3-2.7,4.1-5.6
				c-0.2-2.7-2.2-4.7-4.3-4.7C382.3,381.9,380.4,384.6,380.4,387.5L380.4,387.5z"/>
			<path class="st2" d="M374.8,345.2c-0.9-0.2-1.3-0.9-1.3-1.8s0.6-1.4,1.3-1.6l21.6,0.5c0.9,0.2,1.3,0.9,1.3,1.8
				c0,0.9-0.6,1.4-1.3,1.6L374.8,345.2z"/>
			<path class="st2" d="M374.5,362c-0.9-0.2-1.3-0.9-1.3-2c0-0.7,0.6-1.4,1.3-1.4l21.6,0.5c0.9,0,1.3,0.9,1.3,1.8s-0.6,1.6-1.3,1.6
				L374.5,362z"/>
			<path class="st7" d="M379.1,434.6l0.2-18.5c0-2.5,1.5-4.5,3.7-4.5h3c2.2,0.2,3.7,2.3,3.5,4.7l-0.2,18.5"/>
			<path class="st2" d="M379.1,436.4c-0.6,0-1.3-0.9-1.3-1.8l0.2-18.5c0-3.6,2.4-6.3,5-6.3h3c2.6,0,4.7,2.9,4.7,6.5l-0.2,18.5l0,0
				c0,0.9-0.4,1.6-1.3,1.6c-0.6,0-1.3-0.7-1.3-1.4v-0.2l0.2-18.5l0,0c0-1.6-0.9-2.9-2.2-3.2h-3c-1.3,0-2.4,1.4-2.4,2.9l-0.2,18.5
				l0,0C380.4,435.5,379.7,436.4,379.1,436.4L379.1,436.4z"/>
			<path class="st6" d="M379.1,434.6c0,3.6,2.2,6.8,5,6.8l0,0c2.8,0,5.2-2.9,5.2-6.5c0-3.6-2.2-6.8-5-6.8
				C381.4,428,379.1,431,379.1,434.6"/>
			<path class="st2" d="M377.8,434.6c0-4.7,3-8.3,6.5-8.3s6.3,3.8,6.3,8.6c0,4.7-3,8.3-6.5,8.3S377.8,439.1,377.8,434.6z
				 M384.2,429.8c-2.2,0-3.9,2.3-3.9,5l0,0c0.2,2.5,1.9,4.3,4.1,4.1s3.7-2.5,3.5-5C387.9,431.6,386.2,429.8,384.2,429.8z"/>
		</g>
	</g>
	<rect x="222.4" y="316.9" class="st2" width="31.9" height="20.5"/>
	<rect x="271.2" y="266.4" class="st4" width="72.5" height="20.3"/>
	<path class="st2" d="M269.2,263.8h76.4v25.2h-76.4V263.8z M341.5,268.8h-68.4v15.3h68.4V268.8z"/>
	<path class="st6" d="M276.6,256.1c0-1.3,0.9-2.4,1.9-2.6h56.5c1.3,0,2.2,1.3,1.9,2.6c0,1.3-0.9,2.2-1.9,2.4h-56.5
		C277.4,258.7,276.6,257.4,276.6,256.1z"/>
	<path class="st4" d="M341.5,220.9h-68.2l-4.5-20.3l6-3h71L341.5,220.9z"/>
	<path class="st7" d="M273.3,234.1v-12.9h68.2v12.9c0,6.7-4.3,12.1-9.7,12.1h-48.8C277.7,245.9,273.6,240.5,273.3,234.1z"/>
	<path class="st2" d="M283.1,248.5c-6.5,0-11.7-6.5-11.7-14.7v-15.5h72.1v15.5c0,8-5.2,14.5-11.7,14.5h-48.8V248.5z M275.5,223.5
		v10.6c0,5.2,3.5,9.5,7.6,9.5h48.8c4.3,0,7.6-4.3,7.6-9.5v-10.6H275.5z"/>
	<path class="st6" d="M295.6,197.8c-2.8-1.7-5.6-3.7-8-6.3c-12.5-13.8-13.8-38-2.6-53.5c5.6-7.8,40.6-7.3,46.2,1.1
		c1.7,2.6,3.2,5.6,4.3,8.8c6.7,19.2-0.2,41.6-15.5,50.1"/>
	<path class="st2" d="M321.9,200.4c-0.9,0-1.5-0.6-1.7-1.5c-0.4-1.3,0-2.6,0.9-3.2c14.9-9.1,20.9-31.3,13.8-49.8
		c-0.4-1.3-1.1-2.6-1.7-3.7s-0.4-2.6,0.6-3.5c0.9-0.6,1.9-0.4,2.6,0.4c0,0,0,0.2,0.2,0.2c0.6,1.3,1.3,2.8,1.9,4.3
		c8.2,20.9,1.1,46.2-15.5,56.3C322.3,200.2,322.1,200.2,321.9,200.4L321.9,200.4z"/>
	<path class="st2" d="M293,200c-1.7-1.1-3.2-2.4-4.7-3.7c-15.1-13.8-18.1-40.1-7.3-58.9c0.4-1.1,1.7-1.3,2.6-0.6c0,0,0.2,0,0.2,0.2
		c0.9,0.9,1.1,2.4,0.4,3.5c-9.7,16.6-6.9,39.9,6.5,52c1.3,1.3,2.8,2.4,4.3,3.2c0.6,0.4,1.1,1.3,1.1,2.2c0,1.3-0.9,2.4-1.9,2.4
		C293.4,200.2,293.2,200,293,200z"/>
	<path class="st2" d="M260.2,166.7v-0.9c0-32.6,21.1-58.9,47.3-58.9c26.1,0,47,26.3,47,58.9v0.2l-11.7,57h-71.2L260.2,166.7z
		 M350.6,165.7c-0.4-29.1-19.2-52.6-42.5-53.1c-23.9-0.4-43.6,23.3-44,53.1l10.8,52.6h64.9L350.6,165.7z"/>
	<path class="st2" d="M349.1,191.8L349.1,191.8c-1.3-0.2-2.2-1.3-1.9-2.8c0.2-1.1,0.9-2.2,1.9-2.2h4.7c2.8-0.2,5-2.8,4.7-6V159
		c0-3.2-1.9-5.8-4.7-6h-1.9c-1.3-0.2-1.9-1.5-1.7-3c0.2-1.1,0.9-1.9,1.7-2.2h1.9c5,0,8.8,5,8.8,11v21.8c0,6-3.9,11-8.8,11
		L349.1,191.8L349.1,191.8z"/>
	<path class="st2" d="M252.2,180.8V159c0-6,3.9-11,8.8-11h1.9c1.1,0.2,1.7,1.1,1.9,2.4s-0.6,2.6-1.9,2.6H261c-2.8,0.2-5,2.8-4.7,6
		v21.8c-0.2,3.2,1.9,5.8,4.7,6h4.7c1.1,0.2,1.7,1.1,1.9,2.4s-0.6,2.6-1.9,2.6H261C256.1,192,252.2,187,252.2,180.8z"/>
	<path class="st2" d="M350.6,158.3c-23.3-30.2-61.7-31.3-86.1-2.4l-0.2,0.2c-0.6,0.9-1.9,0.9-2.6,0l-0.2-0.2
		c-0.6-1.1-0.6-2.6,0.2-3.5c25.9-30.9,66.9-29.8,91.7,2.4l0,0c0.9,1.1,0.9,2.6,0,3.5c-0.4,0.4-0.9,0.6-1.3,0.6
		C351.7,159.2,351,158.8,350.6,158.3z"/>
	<path class="st2" d="M267.1,198c-0.2-1.3,0.6-2.6,1.9-2.6h76.8c1.1,0.2,1.7,1.1,1.9,2.4c0.2,1.3-0.6,2.6-1.9,2.6h-77
		C268,200.2,267.1,199.1,267.1,198z"/>
	<path class="st4" d="M291.7,150.6L291.7,150.6c0-5.4,3.5-9.9,8-9.9l0,0c4.3,0,8,4.3,8,9.9s-3.5,9.9-8,9.9
		C295.1,160.5,291.7,156,291.7,150.6"/>
	<path class="st4" d="M286.1,165.2c0-2.2,1.3-3.9,3.2-4.1l0,0c1.9-0.2,3.7,1.3,3.9,3.7c0.2,2.2-1.3,4.1-3.2,4.3
		c-1.9,0.2-3.7-1.3-3.9-3.7C286.1,165.5,286.1,165.5,286.1,165.2"/>
	<path class="st8" d="M375.4,205.2c-0.2,1.7-0.2,3.3-0.6,5c-0.1,0.5-1.1,1-1.8,1.2c-0.3,0.1-1.1-0.7-1.3-1.2
		c-0.9-1.7-1.7-3.5-2.6-5.2c-2.6-5-8.8-6.9-14.8-5c-1.2,0.4-2.5,0.5-4.3,0.9c1.4-3.3,3.9-5.4,6.7-7.2c0.4-0.1,0.8-0.2,1.1-0.3
		c1.1-0.1,2.2-0.2,3.4-0.3c0.6,0,1.1,0,1.7,0c2.4,0.9,4.7,1.8,7.1,2.6c0,0.1,0,0.2,0.2,0.3c0.2,0.1,0.4,0.3,0.5,0.4c0,0,0,0,0,0
		c0.2,0.1,0.4,0.3,0.6,0.4c0,0,0,0,0,0c0.4,0.6,0.9,1.1,1.3,1.7c0.1,0.1,0.1,0.3,0.2,0.4c0.1,0.2,0.3,0.3,0.4,0.5c0,0,0,0,0,0
		c0.3,0.4,0.5,0.9,0.8,1.3c0.1,0.3,0.2,0.6,0.3,0.9c0.4,0.8,0.7,1.5,1.1,2.3C375.3,204.3,375.3,204.7,375.4,205.2z"/>
	<path class="st9" d="M368.1,222.6c-3.8,1-7.5,2.2-11.3,2.9c-1,0.2-2.7-0.7-3.3-1.5c-1.9-2.6-3.5-5.4-5.2-8.2
		c-0.2-0.2-0.1-0.6-0.1-0.4c3.5,0.4,7.1,1,10.7,1.1c2.8,0.1,5.5-0.6,7.8-2.4c0.9-0.7,2.7-0.7,4.1-1.1c0.1,0.4,0.2,0.9,0.3,1.3
		c-0.2,1.6-0.4,3.1-0.6,4.7c-0.1,0.2-0.1,0.3-0.2,0.5c-0.2,0.3-0.3,0.6-0.5,0.9c0,0,0,0,0,0C369.3,221.1,368.7,221.9,368.1,222.6
		L368.1,222.6z"/>
	<path class="st10" d="M356.9,203.7c-6.5,3-5.8,4.7-2.2,10.7c-3.3-0.5-6.2-1.2-7.4-3.8c-1-2.1,0.5-5.1,3.2-7
		c3.7-2.5,8.8-3.2,12.1-1.6c-0.9,0.2-1.6,0.3-2.3,0.4C359.1,202.9,358,203.3,356.9,203.7z"/>
	<path class="st11" d="M356.2,208.9c0.7,0.6,1,1.3,1.5,1.4c1.6,0.3,3.4,0.7,4.9,0.4c1.9-0.4,2.3-1.8,2.1-3.3
		c-0.1-0.7,0.4-1.5,0.7-2.2c0.6,0.6,1.4,1.1,1.7,1.8c1,2.4-0.5,5.3-3.4,6.7c-2.4,1.1-5.3,0.8-7.3-0.8
		C355.1,211.7,354.8,210.6,356.2,208.9z"/>
	<path class="st12" d="M359.3,204.4c2.1-0.1,3.5,0.7,3.6,2.4c0,0.8-0.7,1.8-1.5,2.5c-0.3,0.3-2,0.3-2.2,0c-0.5-0.8-0.6-1.8-0.8-3
		c-1,0.4-2.2,0.9-3.5,1.4c-0.3-0.2-0.6-0.5-0.9-0.7c0.7-0.4,1.4-0.7,2-1.1c0.2-0.1,0.3-0.2,0.5-0.4c0.6-0.3,1.1-0.5,1.7-0.8
		C358.5,204.6,358.9,204.5,359.3,204.4z"/>
	<g>
		<path class="st5" d="M221.1,334.7l10.3-27.1"/>
		<path class="st2" d="M232.7,307.8l-10.3,27.1l-0.1,0.2c-0.4,0.9-1.2,1.4-1.9,1.1l0,0c-0.5-0.5-0.9-1.4-0.5-2.3l10.3-27.1l0,0
			c0.4-0.9,1-1.4,1.7-1.4c0.7,0,1,0.9,0.9,1.9C232.8,307.6,232.7,307.8,232.7,307.8L232.7,307.8z"/>
		<path class="st2" d="M248.4,262.5l9.2-24.4"/>
		<path class="st2" d="M258.6,238.5l-9.2,24.4c-0.4,0.9-1,1.4-1.6,1.2s-0.9-1.2-0.8-2.2l0,0l9.2-24.4l0,0c0.4-0.9,1-1.4,1.7-1.4
			c0.7,0,1,0.9,0.9,1.9C258.7,238.3,258.7,238.3,258.6,238.5z"/>
		<g>
			<path class="st4" d="M261.4,258.6L234.9,329l0,0c-2.1,5.3-6.7,8.5-10.3,7l-7-2.5c-3.7-1.5-5.1-6.8-3.3-11.9l26.5-70.4l0,0
				c2.1-5.3,6.6-8.2,10.3-7l7,2.5C261.9,248,263.3,253.3,261.4,258.6z"/>
			<path class="st2" d="M262.6,259.1l-26.5,70.4c-2.2,6.2-7.7,9.9-12.2,8.4l-7-2.5c-4.4-1.5-6-7.9-3.8-14.2l26.5-70.4
				c2.2-6.2,7.7-9.9,12.2-8.4l7,2.5C263.3,246.7,264.9,252.9,262.6,259.1z M225.3,334.2c3,1.2,6.7-1.6,8.4-5.7l26.5-70.4
				c1.7-4.3,0.4-8.6-2.7-9.8l-7-2.5c-3-1.2-6.7,1.6-8.4,5.7l-26.5,70.4c-1.7,4.3-0.4,8.6,2.7,9.8L225.3,334.2z"/>
			<path class="st6" d="M253.7,264.6L253.7,264.6L253.7,264.6c1.6-4.1,0.6-8.5-2.6-9.5l0,0c-3-1.2-6.7,1.6-8.4,5.7
				c-1.6,4.1-0.6,8.5,2.6,9.5C248.4,271.2,252,268.7,253.7,264.6"/>
			<path class="st2" d="M254.9,265L254.9,265c-2,5-6.6,8.2-10.2,6.8c-3.7-1.5-5.2-6.5-3.1-11.8c2-5,6.6-8.2,10.2-6.8
				C255.5,254.7,257,259.8,254.9,265z M252.4,264.1L252.4,264.1c1-3-0.4-6-2.9-6.4c-2.4-0.4-5,1.4-6,4.5c-0.9,2.8,0.1,5.6,2.4,6.3
				C248.6,269.1,251.5,267.1,252.4,264.1L252.4,264.1z"/>
			<path class="st2" d="M242.2,309.4c0.8,0.3,0.9,1.4,0.5,2.3c-0.4,0.9-1.2,1.1-1.9,1.1l-20.6-7.4c-0.8-0.3-0.9-1.4-0.5-2.3
				c0.4-0.9,1.2-1.1,1.9-1.1L242.2,309.4z"/>
			<path class="st2" d="M248.9,292c0.8,0.3,0.9,1.4,0.5,2.3c-0.3,0.7-1.2,1.1-1.9,1.1l-20.6-7.4c-0.8-0.3-1.1-1.5-0.5-2.3
				c0.4-0.9,1.2-1.4,1.9-1.1L248.9,292z"/>
			<path class="st7" d="M271.2,216.3l-7,18.9c-0.8,2.6-3.2,4-5.2,3.5l-2.8-1.1c-2-0.8-2.6-3.4-1.6-5.9l7-18.9"/>
			<path class="st2" d="M271.9,214.4c0.6,0.2,0.9,1.2,0.6,2.1l-7,18.9c-1.5,3.7-4.7,5.8-7.1,4.9l-2.8-1.1c-2.4-1-3.6-4.6-2.1-8.2
				l7-18.9l0,0c0.4-0.9,1-1.4,1.6-1.2c0.6,0.2,1,0.9,0.9,1.9l-0.1,0.2l-7,18.9l0,0c-0.6,1.6-0.2,3.4,1.1,3.9l2.8,1.1
				c1.3,0.3,2.9-0.7,3.3-2.4l7-18.9l0,0C270.4,214.9,271.1,214.1,271.9,214.4L271.9,214.4z"/>
			<path class="st6" d="M271.2,216.3c1.5-3.7,0.4-7.5-2.2-8.6l0,0c-2.6-1-5.9,1.3-7.4,5c-1.5,3.7-0.4,7.5,2.2,8.6
				C266.5,222.1,269.8,219.9,271.2,216.3"/>
			<path class="st2" d="M272.5,216.5c-1.9,4.8-6.1,7.6-9.3,6.3c-3.2-1.3-4.6-6.1-2.8-10.6c1.9-4.8,6-7.4,9.3-6.3
				C272.9,207.2,274.1,211.9,272.5,216.5z M264.5,219.4c2.1,0.6,4.6-1.1,5.5-3.9l0,0c0.8-2.6-0.3-5.1-2.5-5.5
				c-2.1-0.6-4.4,1.1-5,3.8C261.7,216.5,262.6,218.9,264.5,219.4z"/>
		</g>
	</g>
	<line class="st13" x1="164.2" y1="542.2" x2="450.3" y2="542.2"/>
	<path class="st14" d="M305,66.8L59.2,208.7v283.8L305,634.4l245.7-141.9V208.7L305,66.8z M538.4,485.4L305,620.1L71.6,485.4V215.9
		L305,81.1l233.4,134.8V485.4z"/>
	<line class="st15" x1="289.6" y1="210.7" x2="326.6" y2="210.7"/>
	<path class="st16" d="M326.5,210.7l-2.4-0.2l1.7,0.1c3.1,0.2,5.9,0.5,8.8,0.7c-0.1,0.9-0.3,1.8-0.4,2.7c-12-0.7-24.1-2-37.1-1.7
		c10,2.9,13.4,8.8,8.4,13.4c-11.3-2.8-17-7.1-14.7-13.6c-13.3,0.7-25.8,1.3-38.6,2c-0.3-1.1-0.6-1.9-0.8-2.8
		c18-1.2,35.6-2.5,53.7-1.9l18.9,1.1L326.5,210.7z"/>
	<path class="st17" d="M355.3,191.4c-1.2,1.6-2.5,3.2-3.6,4.8c-1.3,1.9-2.5,3.9-3.6,5.9c-0.6,1-0.7,2.1-1.3,3.1
		c-3.1,4.6-2.3,8.9,0.5,13.2c2,3.1,3.5,6.3,5.2,9.5c0.1,0.7,0.2,1.3,0.3,2c0,0.2,0,0.3,0,0.5c-0.6-0.1-1.4-0.1-1.8-0.3
		c-3-1.9-5.8-4.1-9-5.7c-5-2.5-7.8-6-9.4-10.5c-0.1-1-0.2-2-0.3-3c1.8-8.5,9.4-13.2,17.9-17.3c0.5-0.3,1-0.5,1.5-0.8
		C352.9,192.3,354.1,191.8,355.3,191.4L355.3,191.4z"/>
</g>
</svg>
